M48
; DRILL file {KiCad (5.99.0-7043-g7933935b4a)} date Tue Nov 17 10:52:06 2020
; FORMAT={-:-/ absolute / inch / decimal}
; #@! TF.CreationDate,2020-11-17T10:52:06+02:00
; #@! TF.GenerationSoftware,Kicad,Pcbnew,(5.99.0-7043-g7933935b4a)
; #@! TF.FileFunction,Plated,1,2,PTH
FMAT,2
INCH
T1C0.0315
T2C0.0354
T3C0.0394
T4C0.0433
T5C0.0551
%
G90
G05
T1
X5.8492Y-3.8657
X5.9476Y-3.8657
X5.2531Y-3.963
X4.8634Y-4.0819
X5.1634Y-4.0819
X4.8638Y-3.9614
X5.1638Y-3.9614
X5.3472Y-4.3094
X5.6472Y-4.3094
X5.0886Y-3.7819
X5.187Y-3.7819
X4.5646Y-3.9622
X4.7614Y-3.9622
X5.5531Y-3.963
X4.8961Y-4.2811
X4.9945Y-4.2811
X5.685Y-4.1898
X5.985Y-4.1898
T2
X5.4637Y-4.202
X5.5637Y-4.202
T3
X5.7559Y-4.3882
X5.8559Y-4.4882
X5.9559Y-4.3882
X5.6539Y-4.0409
X5.7539Y-4.0409
X5.8539Y-4.0409
X5.9957Y-4.0413
X6.0957Y-4.0413
X6.1957Y-4.0413
T4
X4.5343Y-4.078
X4.5343Y-4.178
X5.3634Y-4.4736
X5.4634Y-4.4736
X5.5634Y-4.4736
X5.6634Y-4.4736
X4.7016Y-4.4827
X5.1016Y-4.4827
T5
X4.5543Y-3.8366
X4.7543Y-3.8366
X4.9543Y-3.8366
X5.3134Y-3.8362
X5.5134Y-3.8362
X5.7134Y-3.8362
X6.076Y-3.837
X6.276Y-3.837
X6.476Y-3.837
T0
M30
