%TF.GenerationSoftware,KiCad,Pcbnew,(5.99.0-7043-g7933935b4a)*%
%TF.CreationDate,2020-11-17T10:52:04+02:00*%
%TF.ProjectId,soul-fuzz,736f756c-2d66-4757-9a7a-2e6b69636164,rev?*%
%TF.SameCoordinates,Original*%
%TF.FileFunction,Copper,L2,Bot*%
%TF.FilePolarity,Positive*%
%FSLAX46Y46*%
G04 Gerber Fmt 4.6, Leading zero omitted, Abs format (unit mm)*
G04 Created by KiCad (PCBNEW (5.99.0-7043-g7933935b4a)) date 2020-11-17 10:52:04*
%MOMM*%
%LPD*%
G01*
G04 APERTURE LIST*
%TA.AperFunction,ComponentPad*%
%ADD10R,1.930400X1.930400*%
%TD*%
%TA.AperFunction,ComponentPad*%
%ADD11O,1.930400X1.930400*%
%TD*%
%TA.AperFunction,ComponentPad*%
%ADD12C,1.600000*%
%TD*%
%TA.AperFunction,ComponentPad*%
%ADD13O,1.600000X1.600000*%
%TD*%
%TA.AperFunction,ComponentPad*%
%ADD14R,2.540000X2.540000*%
%TD*%
%TA.AperFunction,ComponentPad*%
%ADD15O,2.540000X2.540000*%
%TD*%
%TA.AperFunction,ComponentPad*%
%ADD16R,2.200000X2.200000*%
%TD*%
%TA.AperFunction,ComponentPad*%
%ADD17O,2.200000X2.200000*%
%TD*%
%TA.AperFunction,ComponentPad*%
%ADD18R,1.600000X1.600000*%
%TD*%
%TA.AperFunction,ComponentPad*%
%ADD19R,1.800000X1.800000*%
%TD*%
%TA.AperFunction,ComponentPad*%
%ADD20C,1.800000*%
%TD*%
%TA.AperFunction,Conductor*%
%ADD21C,0.380000*%
%TD*%
G04 APERTURE END LIST*
D10*
%TO.P,J2,1,Pin_1*%
%TO.N,+9V*%
X115170000Y-106120000D03*
D11*
%TO.P,J2,2,Pin_2*%
%TO.N,GND*%
X115170000Y-103580000D03*
%TD*%
D12*
%TO.P,R4,1*%
%TO.N,VCC*%
X131160001Y-100619999D03*
D13*
%TO.P,R4,2*%
%TO.N,Net-(C3-Pad1)*%
X123540001Y-100619999D03*
%TD*%
D14*
%TO.P,RV2,1,1*%
%TO.N,GND*%
X145120000Y-97440000D03*
D15*
%TO.P,RV2,2,2*%
%TO.N,Net-(C2-Pad1)*%
X140040000Y-97440000D03*
%TO.P,RV2,3,3*%
%TO.N,Net-(Q2-Pad1)*%
X134960000Y-97440000D03*
%TD*%
D10*
%TO.P,J1,1,Pin_1*%
%TO.N,IN*%
X136230000Y-113630000D03*
D11*
%TO.P,J1,2,Pin_2*%
%TO.N,GND*%
X138770000Y-113630000D03*
%TO.P,J1,3,Pin_3*%
%TO.N,LED-*%
X141310000Y-113630000D03*
%TO.P,J1,4,Pin_4*%
%TO.N,OUT*%
X143850000Y-113630000D03*
%TD*%
D14*
%TO.P,RV1,1,1*%
%TO.N,IN*%
X164490000Y-97460000D03*
D15*
%TO.P,RV1,2,2*%
X159410000Y-97460000D03*
%TO.P,RV1,3,3*%
%TO.N,Net-(C1-Pad2)*%
X154330000Y-97460000D03*
%TD*%
D16*
%TO.P,D1,1,K*%
%TO.N,VCC*%
X129580000Y-113860000D03*
D17*
%TO.P,D1,2,A*%
%TO.N,+9V*%
X119420000Y-113860000D03*
%TD*%
D12*
%TO.P,R5,1*%
%TO.N,LED-*%
X143440000Y-109460000D03*
D13*
%TO.P,R5,2*%
%TO.N,Net-(D2-Pad1)*%
X135820000Y-109460000D03*
%TD*%
D12*
%TO.P,R2,1*%
%TO.N,VCC*%
X144400000Y-106420000D03*
D13*
%TO.P,R2,2*%
%TO.N,Net-(Q1-Pad3)*%
X152020000Y-106420000D03*
%TD*%
D12*
%TO.P,C3,1*%
%TO.N,Net-(C3-Pad1)*%
X120940000Y-100640000D03*
%TO.P,C3,2*%
%TO.N,Net-(C3-Pad2)*%
X115940000Y-100640000D03*
%TD*%
D11*
%TO.P,RV4,1,1*%
%TO.N,Net-(Q2-Pad3)*%
X151280000Y-111460000D03*
%TO.P,RV4,2,2*%
X148740000Y-114000000D03*
%TO.P,RV4,3,3*%
%TO.N,Net-(R3-Pad2)*%
X146200000Y-111460000D03*
%TD*%
D14*
%TO.P,RV3,1,1*%
%TO.N,GND*%
X125840000Y-97450000D03*
D15*
%TO.P,RV3,2,2*%
%TO.N,OUT*%
X120760000Y-97450000D03*
%TO.P,RV3,3,3*%
%TO.N,Net-(C3-Pad2)*%
X115680000Y-97450000D03*
%TD*%
D18*
%TO.P,C1,1*%
%TO.N,Net-(C1-Pad1)*%
X148570000Y-98190000D03*
D12*
%TO.P,C1,2*%
%TO.N,Net-(C1-Pad2)*%
X151070000Y-98190000D03*
%TD*%
D18*
%TO.P,C2,1*%
%TO.N,Net-(C2-Pad1)*%
X129250000Y-96060000D03*
D12*
%TO.P,C2,2*%
%TO.N,GND*%
X131750000Y-96060000D03*
%TD*%
%TO.P,R1,1*%
%TO.N,Net-(C1-Pad1)*%
X141050000Y-100660000D03*
D13*
%TO.P,R1,2*%
%TO.N,Net-(Q2-Pad1)*%
X133430000Y-100660000D03*
%TD*%
D12*
%TO.P,R3,1*%
%TO.N,Net-(C3-Pad1)*%
X123530000Y-103680000D03*
D13*
%TO.P,R3,2*%
%TO.N,Net-(R3-Pad2)*%
X131150000Y-103680000D03*
%TD*%
D10*
%TO.P,Q1,1,E*%
%TO.N,GND*%
X152290000Y-102650000D03*
D11*
%TO.P,Q1,2,B*%
%TO.N,Net-(C1-Pad1)*%
X154830000Y-102650000D03*
%TO.P,Q1,3,C*%
%TO.N,Net-(Q1-Pad3)*%
X157370000Y-102650000D03*
%TD*%
D18*
%TO.P,C4,1*%
%TO.N,VCC*%
X124360000Y-108740000D03*
D12*
%TO.P,C4,2*%
%TO.N,GND*%
X126860000Y-108740000D03*
%TD*%
D10*
%TO.P,Q2,1,E*%
%TO.N,Net-(Q2-Pad1)*%
X143610000Y-102640000D03*
D11*
%TO.P,Q2,2,B*%
%TO.N,Net-(Q1-Pad3)*%
X146150000Y-102640000D03*
%TO.P,Q2,3,C*%
%TO.N,Net-(Q2-Pad3)*%
X148690000Y-102640000D03*
%TD*%
D19*
%TO.P,D2,1,K*%
%TO.N,Net-(D2-Pad1)*%
X138776941Y-106730000D03*
D20*
%TO.P,D2,2,A*%
%TO.N,VCC*%
X141316941Y-106730000D03*
%TD*%
D21*
%TO.N,LED-*%
X141130000Y-111820000D02*
X143290000Y-109660000D01*
X141130000Y-113640000D02*
X141130000Y-111820000D01*
%TD*%
%TA.AperFunction,Conductor*%
%TO.N,GND*%
G36*
X166292121Y-93220002D02*
G01*
X166338614Y-93273658D01*
X166350000Y-93326000D01*
X166350000Y-95752795D01*
X166329998Y-95820916D01*
X166276342Y-95867409D01*
X166206068Y-95877513D01*
X166141487Y-95848019D01*
X166134126Y-95841640D01*
X166037619Y-95758016D01*
X166008446Y-95744693D01*
X165912864Y-95701042D01*
X165912863Y-95701042D01*
X165904670Y-95697300D01*
X165895755Y-95696018D01*
X165895754Y-95696018D01*
X165764448Y-95677139D01*
X165764441Y-95677138D01*
X165760000Y-95676500D01*
X163220000Y-95676500D01*
X163146921Y-95681727D01*
X163093884Y-95697300D01*
X163015330Y-95720365D01*
X163015328Y-95720366D01*
X163006684Y-95722904D01*
X162999105Y-95727775D01*
X162891309Y-95797051D01*
X162891306Y-95797053D01*
X162883729Y-95801923D01*
X162877828Y-95808733D01*
X162793918Y-95905569D01*
X162793916Y-95905572D01*
X162788016Y-95912381D01*
X162727300Y-96045330D01*
X162726018Y-96054245D01*
X162726018Y-96054246D01*
X162707139Y-96185552D01*
X162707138Y-96185559D01*
X162706500Y-96190000D01*
X162706500Y-98730000D01*
X162711727Y-98803079D01*
X162713631Y-98809562D01*
X162744431Y-98914458D01*
X162752904Y-98943316D01*
X162771656Y-98972494D01*
X162827051Y-99058691D01*
X162827053Y-99058694D01*
X162831923Y-99066271D01*
X162838733Y-99072172D01*
X162935569Y-99156082D01*
X162935572Y-99156084D01*
X162942381Y-99161984D01*
X162950579Y-99165728D01*
X163058218Y-99214885D01*
X163075330Y-99222700D01*
X163084245Y-99223982D01*
X163084246Y-99223982D01*
X163215552Y-99242861D01*
X163215559Y-99242862D01*
X163220000Y-99243500D01*
X165760000Y-99243500D01*
X165833079Y-99238273D01*
X165922438Y-99212035D01*
X165964670Y-99199635D01*
X165964672Y-99199634D01*
X165973316Y-99197096D01*
X166029191Y-99161187D01*
X166088691Y-99122949D01*
X166088694Y-99122947D01*
X166096271Y-99118077D01*
X166128776Y-99080564D01*
X166188501Y-99042181D01*
X166259498Y-99042181D01*
X166319224Y-99080564D01*
X166348717Y-99145145D01*
X166350000Y-99163077D01*
X166350000Y-115814000D01*
X166329998Y-115882121D01*
X166276342Y-115928614D01*
X166224000Y-115940000D01*
X113756000Y-115940000D01*
X113687879Y-115919998D01*
X113641386Y-115866342D01*
X113630000Y-115814000D01*
X113630000Y-113860000D01*
X117806500Y-113860000D01*
X117826365Y-114112407D01*
X117827519Y-114117214D01*
X117827520Y-114117220D01*
X117841235Y-114174346D01*
X117885470Y-114358599D01*
X117887363Y-114363170D01*
X117887364Y-114363172D01*
X117978905Y-114584170D01*
X117982361Y-114592514D01*
X118114651Y-114808392D01*
X118117862Y-114812152D01*
X118117866Y-114812157D01*
X118248349Y-114964932D01*
X118279083Y-115000917D01*
X118282845Y-115004130D01*
X118467843Y-115162134D01*
X118467848Y-115162138D01*
X118471608Y-115165349D01*
X118687486Y-115297639D01*
X118692056Y-115299532D01*
X118692060Y-115299534D01*
X118915254Y-115391984D01*
X118921401Y-115394530D01*
X119006106Y-115414866D01*
X119162780Y-115452480D01*
X119162786Y-115452481D01*
X119167593Y-115453635D01*
X119420000Y-115473500D01*
X119672407Y-115453635D01*
X119677214Y-115452481D01*
X119677220Y-115452480D01*
X119833894Y-115414866D01*
X119918599Y-115394530D01*
X119924746Y-115391984D01*
X120147940Y-115299534D01*
X120147944Y-115299532D01*
X120152514Y-115297639D01*
X120368392Y-115165349D01*
X120372152Y-115162138D01*
X120372157Y-115162134D01*
X120557155Y-115004130D01*
X120560917Y-115000917D01*
X120591651Y-114964932D01*
X120722134Y-114812157D01*
X120722138Y-114812152D01*
X120725349Y-114808392D01*
X120857639Y-114592514D01*
X120861096Y-114584170D01*
X120952636Y-114363172D01*
X120952637Y-114363170D01*
X120954530Y-114358599D01*
X120998765Y-114174346D01*
X121012480Y-114117220D01*
X121012481Y-114117214D01*
X121013635Y-114112407D01*
X121033500Y-113860000D01*
X121013635Y-113607593D01*
X120994642Y-113528478D01*
X120955685Y-113366213D01*
X120954530Y-113361401D01*
X120914736Y-113265329D01*
X120859534Y-113132060D01*
X120859532Y-113132056D01*
X120857639Y-113127486D01*
X120725349Y-112911608D01*
X120722138Y-112907848D01*
X120722134Y-112907843D01*
X120595864Y-112760000D01*
X127966500Y-112760000D01*
X127966500Y-114960000D01*
X127971727Y-115033079D01*
X127986725Y-115084158D01*
X128009621Y-115162134D01*
X128012904Y-115173316D01*
X128017775Y-115180895D01*
X128087051Y-115288691D01*
X128087053Y-115288694D01*
X128091923Y-115296271D01*
X128098733Y-115302172D01*
X128195569Y-115386082D01*
X128195572Y-115386084D01*
X128202381Y-115391984D01*
X128210579Y-115395728D01*
X128321507Y-115446387D01*
X128335330Y-115452700D01*
X128344245Y-115453982D01*
X128344246Y-115453982D01*
X128475552Y-115472861D01*
X128475559Y-115472862D01*
X128480000Y-115473500D01*
X130680000Y-115473500D01*
X130753079Y-115468273D01*
X130832674Y-115444902D01*
X130884670Y-115429635D01*
X130884672Y-115429634D01*
X130893316Y-115427096D01*
X130943989Y-115394530D01*
X131008691Y-115352949D01*
X131008694Y-115352947D01*
X131016271Y-115348077D01*
X131027271Y-115335382D01*
X131106082Y-115244431D01*
X131106084Y-115244428D01*
X131111984Y-115237619D01*
X131115728Y-115229421D01*
X131168958Y-115112864D01*
X131168958Y-115112863D01*
X131172700Y-115104670D01*
X131176742Y-115076555D01*
X131192861Y-114964448D01*
X131192862Y-114964441D01*
X131193500Y-114960000D01*
X131193500Y-112760000D01*
X131188273Y-112686921D01*
X131181778Y-112664800D01*
X134751300Y-112664800D01*
X134751300Y-114595200D01*
X134756527Y-114668279D01*
X134762843Y-114689789D01*
X134788533Y-114777281D01*
X134797704Y-114808516D01*
X134816642Y-114837984D01*
X134871851Y-114923891D01*
X134871853Y-114923894D01*
X134876723Y-114931471D01*
X134883533Y-114937372D01*
X134980369Y-115021282D01*
X134980372Y-115021284D01*
X134987181Y-115027184D01*
X134995379Y-115030928D01*
X135103907Y-115080491D01*
X135120130Y-115087900D01*
X135129045Y-115089182D01*
X135129046Y-115089182D01*
X135260352Y-115108061D01*
X135260359Y-115108062D01*
X135264800Y-115108700D01*
X137195200Y-115108700D01*
X137268279Y-115103473D01*
X137365584Y-115074902D01*
X137399870Y-115064835D01*
X137399872Y-115064834D01*
X137408516Y-115062296D01*
X137472335Y-115021282D01*
X137523891Y-114988149D01*
X137523894Y-114988147D01*
X137531471Y-114983277D01*
X137553049Y-114958375D01*
X137621282Y-114879631D01*
X137621284Y-114879628D01*
X137627184Y-114872819D01*
X137630928Y-114864622D01*
X137630930Y-114864618D01*
X137650447Y-114821882D01*
X137696940Y-114768227D01*
X137765061Y-114748225D01*
X137833181Y-114768227D01*
X137845545Y-114777281D01*
X137918159Y-114837566D01*
X137926606Y-114843481D01*
X138126830Y-114960482D01*
X138136117Y-114964932D01*
X138352769Y-115047663D01*
X138362662Y-115050537D01*
X138498248Y-115078122D01*
X138512300Y-115076927D01*
X138516000Y-115066582D01*
X138516000Y-112198019D01*
X139024000Y-112198019D01*
X139024000Y-115064615D01*
X139028064Y-115078457D01*
X139041478Y-115080491D01*
X139072205Y-115076555D01*
X139082288Y-115074412D01*
X139304418Y-115007770D01*
X139313995Y-115004017D01*
X139522264Y-114901987D01*
X139531109Y-114896714D01*
X139719904Y-114762048D01*
X139727779Y-114755392D01*
X139892045Y-114591699D01*
X139898729Y-114583846D01*
X139936106Y-114531830D01*
X139992100Y-114488182D01*
X140062804Y-114481736D01*
X140125768Y-114514539D01*
X140133659Y-114522852D01*
X140190417Y-114588375D01*
X140272025Y-114682585D01*
X140275408Y-114686491D01*
X140279377Y-114689786D01*
X140279380Y-114689789D01*
X140411974Y-114799870D01*
X140461853Y-114841280D01*
X140671075Y-114963540D01*
X140897456Y-115049986D01*
X140902522Y-115051017D01*
X140902523Y-115051017D01*
X141129837Y-115097265D01*
X141129841Y-115097265D01*
X141134916Y-115098298D01*
X141140092Y-115098488D01*
X141140094Y-115098488D01*
X141371914Y-115106989D01*
X141371918Y-115106989D01*
X141377078Y-115107178D01*
X141382198Y-115106522D01*
X141382200Y-115106522D01*
X141612311Y-115077044D01*
X141612312Y-115077044D01*
X141617439Y-115076387D01*
X141664407Y-115062296D01*
X141844590Y-115008238D01*
X141849543Y-115006752D01*
X141854182Y-115004479D01*
X141854188Y-115004477D01*
X142062520Y-114902416D01*
X142067158Y-114900144D01*
X142190511Y-114812157D01*
X142260226Y-114762430D01*
X142260231Y-114762426D01*
X142264438Y-114759425D01*
X142436087Y-114588375D01*
X142439103Y-114584178D01*
X142439110Y-114584170D01*
X142476441Y-114532218D01*
X142532435Y-114488570D01*
X142603139Y-114482124D01*
X142666103Y-114514927D01*
X142674000Y-114523246D01*
X142812024Y-114682585D01*
X142812025Y-114682586D01*
X142815408Y-114686491D01*
X142819377Y-114689786D01*
X142819380Y-114689789D01*
X142951974Y-114799870D01*
X143001853Y-114841280D01*
X143211075Y-114963540D01*
X143437456Y-115049986D01*
X143442522Y-115051017D01*
X143442523Y-115051017D01*
X143669837Y-115097265D01*
X143669841Y-115097265D01*
X143674916Y-115098298D01*
X143680092Y-115098488D01*
X143680094Y-115098488D01*
X143911914Y-115106989D01*
X143911918Y-115106989D01*
X143917078Y-115107178D01*
X143922198Y-115106522D01*
X143922200Y-115106522D01*
X144152311Y-115077044D01*
X144152312Y-115077044D01*
X144157439Y-115076387D01*
X144204407Y-115062296D01*
X144384590Y-115008238D01*
X144389543Y-115006752D01*
X144394182Y-115004479D01*
X144394188Y-115004477D01*
X144602520Y-114902416D01*
X144607158Y-114900144D01*
X144730511Y-114812157D01*
X144800226Y-114762430D01*
X144800231Y-114762426D01*
X144804438Y-114759425D01*
X144976087Y-114588375D01*
X144979342Y-114583846D01*
X145114475Y-114395787D01*
X145117493Y-114391587D01*
X145122306Y-114381850D01*
X145170091Y-114285163D01*
X145224860Y-114174346D01*
X145256903Y-114068882D01*
X145288807Y-113963872D01*
X147261741Y-113963872D01*
X147275691Y-114205795D01*
X147276826Y-114210832D01*
X147276827Y-114210838D01*
X147311157Y-114363172D01*
X147328965Y-114442192D01*
X147330909Y-114446979D01*
X147330910Y-114446983D01*
X147392008Y-114597450D01*
X147420133Y-114666713D01*
X147546748Y-114873329D01*
X147550129Y-114877232D01*
X147698177Y-115048143D01*
X147705408Y-115056491D01*
X147709377Y-115059786D01*
X147709380Y-115059789D01*
X147768100Y-115108539D01*
X147891853Y-115211280D01*
X148101075Y-115333540D01*
X148327456Y-115419986D01*
X148332522Y-115421017D01*
X148332523Y-115421017D01*
X148559837Y-115467265D01*
X148559841Y-115467265D01*
X148564916Y-115468298D01*
X148570092Y-115468488D01*
X148570094Y-115468488D01*
X148801914Y-115476989D01*
X148801918Y-115476989D01*
X148807078Y-115477178D01*
X148812198Y-115476522D01*
X148812200Y-115476522D01*
X149042311Y-115447044D01*
X149042312Y-115447044D01*
X149047439Y-115446387D01*
X149216437Y-115395685D01*
X149274590Y-115378238D01*
X149279543Y-115376752D01*
X149284182Y-115374479D01*
X149284188Y-115374477D01*
X149492520Y-115272416D01*
X149497158Y-115270144D01*
X149622280Y-115180895D01*
X149690226Y-115132430D01*
X149690231Y-115132426D01*
X149694438Y-115129425D01*
X149866087Y-114958375D01*
X149885420Y-114931471D01*
X150004475Y-114765787D01*
X150007493Y-114761587D01*
X150114860Y-114544346D01*
X150133883Y-114481736D01*
X150183801Y-114317438D01*
X150183802Y-114317432D01*
X150185305Y-114312486D01*
X150204144Y-114169392D01*
X150216498Y-114075555D01*
X150216498Y-114075551D01*
X150216935Y-114072234D01*
X150218700Y-114000000D01*
X150198844Y-113758490D01*
X150139810Y-113523466D01*
X150081121Y-113388490D01*
X150045243Y-113305976D01*
X150045241Y-113305973D01*
X150043183Y-113301239D01*
X149911559Y-113097778D01*
X149882359Y-113065687D01*
X149751949Y-112922369D01*
X149751947Y-112922368D01*
X149748471Y-112918547D01*
X149744420Y-112915348D01*
X149744416Y-112915344D01*
X149562355Y-112771561D01*
X149562351Y-112771559D01*
X149558300Y-112768359D01*
X149346153Y-112651248D01*
X149341284Y-112649524D01*
X149341280Y-112649522D01*
X149122603Y-112572084D01*
X149122599Y-112572083D01*
X149117728Y-112570358D01*
X149112638Y-112569451D01*
X149112633Y-112569450D01*
X148979352Y-112545710D01*
X148879158Y-112527863D01*
X148788181Y-112526751D01*
X148642021Y-112524965D01*
X148642019Y-112524965D01*
X148636851Y-112524902D01*
X148397314Y-112561556D01*
X148166981Y-112636841D01*
X148162393Y-112639229D01*
X148162389Y-112639231D01*
X147960732Y-112744207D01*
X147952036Y-112748734D01*
X147947903Y-112751837D01*
X147947900Y-112751839D01*
X147775851Y-112881017D01*
X147758252Y-112894231D01*
X147590834Y-113069424D01*
X147587920Y-113073696D01*
X147587919Y-113073697D01*
X147530086Y-113158478D01*
X147454278Y-113269608D01*
X147352250Y-113489408D01*
X147287492Y-113722919D01*
X147286943Y-113728056D01*
X147264027Y-113942486D01*
X147261741Y-113963872D01*
X145288807Y-113963872D01*
X145293801Y-113947438D01*
X145293802Y-113947432D01*
X145295305Y-113942486D01*
X145319529Y-113758490D01*
X145326498Y-113705555D01*
X145326498Y-113705551D01*
X145326935Y-113702234D01*
X145328700Y-113630000D01*
X145308844Y-113388490D01*
X145249810Y-113153466D01*
X145193121Y-113023091D01*
X145155243Y-112935976D01*
X145155241Y-112935973D01*
X145153183Y-112931239D01*
X145021559Y-112727778D01*
X145017071Y-112722845D01*
X145003784Y-112708244D01*
X144972731Y-112644399D01*
X144975689Y-112619551D01*
X144911770Y-112600772D01*
X144886714Y-112579586D01*
X144858471Y-112548547D01*
X144854420Y-112545348D01*
X144854416Y-112545344D01*
X144672355Y-112401561D01*
X144672351Y-112401559D01*
X144668300Y-112398359D01*
X144632748Y-112378733D01*
X144542525Y-112328928D01*
X144456153Y-112281248D01*
X144451284Y-112279524D01*
X144451280Y-112279522D01*
X144232603Y-112202084D01*
X144232599Y-112202083D01*
X144227728Y-112200358D01*
X144222638Y-112199451D01*
X144222633Y-112199450D01*
X144070281Y-112172313D01*
X143989158Y-112157863D01*
X143898181Y-112156751D01*
X143752021Y-112154965D01*
X143752019Y-112154965D01*
X143746851Y-112154902D01*
X143507314Y-112191556D01*
X143276981Y-112266841D01*
X143272393Y-112269229D01*
X143272389Y-112269231D01*
X143084479Y-112367051D01*
X143062036Y-112378734D01*
X143057903Y-112381837D01*
X143057900Y-112381839D01*
X142874168Y-112519789D01*
X142868252Y-112524231D01*
X142831048Y-112563163D01*
X142725241Y-112673884D01*
X142700834Y-112699424D01*
X142687424Y-112719083D01*
X142685237Y-112722289D01*
X142630325Y-112767291D01*
X142559800Y-112775462D01*
X142496053Y-112744207D01*
X142482969Y-112729958D01*
X142481559Y-112727778D01*
X142358402Y-112592430D01*
X142321949Y-112552369D01*
X142321944Y-112552364D01*
X142318471Y-112548547D01*
X142314420Y-112545348D01*
X142314416Y-112545344D01*
X142132355Y-112401561D01*
X142132351Y-112401559D01*
X142128300Y-112398359D01*
X142092748Y-112378733D01*
X142002525Y-112328928D01*
X141916153Y-112281248D01*
X141911278Y-112279522D01*
X141906562Y-112277402D01*
X141907176Y-112276035D01*
X141855155Y-112238415D01*
X141829250Y-112172313D01*
X141843196Y-112102700D01*
X141865669Y-112072158D01*
X142513955Y-111423872D01*
X144721741Y-111423872D01*
X144722038Y-111429024D01*
X144722038Y-111429028D01*
X144723631Y-111456646D01*
X144735691Y-111665795D01*
X144736826Y-111670832D01*
X144736827Y-111670838D01*
X144787827Y-111897143D01*
X144788965Y-111902192D01*
X144790909Y-111906979D01*
X144790910Y-111906983D01*
X144870382Y-112102700D01*
X144880133Y-112126713D01*
X144955811Y-112250208D01*
X145003807Y-112328529D01*
X145006748Y-112333329D01*
X145066217Y-112401981D01*
X145075144Y-112412287D01*
X145104627Y-112476873D01*
X145101374Y-112499475D01*
X145162502Y-112515822D01*
X145177460Y-112526498D01*
X145347876Y-112667979D01*
X145347882Y-112667983D01*
X145351853Y-112671280D01*
X145561075Y-112793540D01*
X145787456Y-112879986D01*
X145792522Y-112881017D01*
X145792523Y-112881017D01*
X146019837Y-112927265D01*
X146019841Y-112927265D01*
X146024916Y-112928298D01*
X146030092Y-112928488D01*
X146030094Y-112928488D01*
X146261914Y-112936989D01*
X146261918Y-112936989D01*
X146267078Y-112937178D01*
X146272198Y-112936522D01*
X146272200Y-112936522D01*
X146502311Y-112907044D01*
X146502312Y-112907044D01*
X146507439Y-112906387D01*
X146530035Y-112899608D01*
X146734590Y-112838238D01*
X146739543Y-112836752D01*
X146744182Y-112834479D01*
X146744188Y-112834477D01*
X146952520Y-112732416D01*
X146957158Y-112730144D01*
X147005465Y-112695687D01*
X147150226Y-112592430D01*
X147150231Y-112592426D01*
X147154438Y-112589425D01*
X147326087Y-112418375D01*
X147350968Y-112383750D01*
X147460390Y-112231472D01*
X147467493Y-112221587D01*
X147476890Y-112202575D01*
X147522975Y-112109327D01*
X147574860Y-112004346D01*
X147591082Y-111950953D01*
X147643801Y-111777438D01*
X147643802Y-111777432D01*
X147645305Y-111772486D01*
X147667657Y-111602705D01*
X147676498Y-111535555D01*
X147676498Y-111535551D01*
X147676935Y-111532234D01*
X147678257Y-111478149D01*
X147678618Y-111463365D01*
X147678618Y-111463361D01*
X147678700Y-111460000D01*
X147675730Y-111423872D01*
X149801741Y-111423872D01*
X149802038Y-111429024D01*
X149802038Y-111429028D01*
X149803631Y-111456646D01*
X149815691Y-111665795D01*
X149816826Y-111670832D01*
X149816827Y-111670838D01*
X149867827Y-111897143D01*
X149868965Y-111902192D01*
X149870909Y-111906979D01*
X149870910Y-111906983D01*
X149950382Y-112102700D01*
X149960133Y-112126713D01*
X150035811Y-112250208D01*
X150083807Y-112328529D01*
X150086748Y-112333329D01*
X150090129Y-112337232D01*
X150225324Y-112493305D01*
X150245408Y-112516491D01*
X150249377Y-112519786D01*
X150249380Y-112519789D01*
X150328860Y-112585774D01*
X150431853Y-112671280D01*
X150641075Y-112793540D01*
X150867456Y-112879986D01*
X150872522Y-112881017D01*
X150872523Y-112881017D01*
X151099837Y-112927265D01*
X151099841Y-112927265D01*
X151104916Y-112928298D01*
X151110092Y-112928488D01*
X151110094Y-112928488D01*
X151341914Y-112936989D01*
X151341918Y-112936989D01*
X151347078Y-112937178D01*
X151352198Y-112936522D01*
X151352200Y-112936522D01*
X151582311Y-112907044D01*
X151582312Y-112907044D01*
X151587439Y-112906387D01*
X151610035Y-112899608D01*
X151814590Y-112838238D01*
X151819543Y-112836752D01*
X151824182Y-112834479D01*
X151824188Y-112834477D01*
X152032520Y-112732416D01*
X152037158Y-112730144D01*
X152085465Y-112695687D01*
X152230226Y-112592430D01*
X152230231Y-112592426D01*
X152234438Y-112589425D01*
X152406087Y-112418375D01*
X152430968Y-112383750D01*
X152540390Y-112231472D01*
X152547493Y-112221587D01*
X152556890Y-112202575D01*
X152602975Y-112109327D01*
X152654860Y-112004346D01*
X152671082Y-111950953D01*
X152723801Y-111777438D01*
X152723802Y-111777432D01*
X152725305Y-111772486D01*
X152747657Y-111602705D01*
X152756498Y-111535555D01*
X152756498Y-111535551D01*
X152756935Y-111532234D01*
X152758257Y-111478149D01*
X152758618Y-111463365D01*
X152758618Y-111463361D01*
X152758700Y-111460000D01*
X152738844Y-111218490D01*
X152679810Y-110983466D01*
X152596936Y-110792869D01*
X152585243Y-110765976D01*
X152585241Y-110765973D01*
X152583183Y-110761239D01*
X152451559Y-110557778D01*
X152422359Y-110525687D01*
X152291949Y-110382369D01*
X152291947Y-110382368D01*
X152288471Y-110378547D01*
X152284420Y-110375348D01*
X152284416Y-110375344D01*
X152102355Y-110231561D01*
X152102351Y-110231559D01*
X152098300Y-110228359D01*
X151886153Y-110111248D01*
X151881284Y-110109524D01*
X151881280Y-110109522D01*
X151662603Y-110032084D01*
X151662599Y-110032083D01*
X151657728Y-110030358D01*
X151652638Y-110029451D01*
X151652633Y-110029450D01*
X151499787Y-110002225D01*
X151419158Y-109987863D01*
X151328181Y-109986751D01*
X151182021Y-109984965D01*
X151182019Y-109984965D01*
X151176851Y-109984902D01*
X150937314Y-110021556D01*
X150706981Y-110096841D01*
X150702393Y-110099229D01*
X150702389Y-110099231D01*
X150660074Y-110121259D01*
X150492036Y-110208734D01*
X150487903Y-110211837D01*
X150487900Y-110211839D01*
X150302387Y-110351126D01*
X150298252Y-110354231D01*
X150130834Y-110529424D01*
X149994278Y-110729608D01*
X149892250Y-110949408D01*
X149827492Y-111182919D01*
X149826943Y-111188056D01*
X149810248Y-111344276D01*
X149801741Y-111423872D01*
X147675730Y-111423872D01*
X147658844Y-111218490D01*
X147599810Y-110983466D01*
X147516936Y-110792869D01*
X147505243Y-110765976D01*
X147505241Y-110765973D01*
X147503183Y-110761239D01*
X147371559Y-110557778D01*
X147342359Y-110525687D01*
X147211949Y-110382369D01*
X147211947Y-110382368D01*
X147208471Y-110378547D01*
X147204420Y-110375348D01*
X147204416Y-110375344D01*
X147022355Y-110231561D01*
X147022351Y-110231559D01*
X147018300Y-110228359D01*
X146806153Y-110111248D01*
X146801284Y-110109524D01*
X146801280Y-110109522D01*
X146582603Y-110032084D01*
X146582599Y-110032083D01*
X146577728Y-110030358D01*
X146572638Y-110029451D01*
X146572633Y-110029450D01*
X146419787Y-110002225D01*
X146339158Y-109987863D01*
X146248181Y-109986751D01*
X146102021Y-109984965D01*
X146102019Y-109984965D01*
X146096851Y-109984902D01*
X145857314Y-110021556D01*
X145626981Y-110096841D01*
X145622393Y-110099229D01*
X145622389Y-110099231D01*
X145580074Y-110121259D01*
X145412036Y-110208734D01*
X145407903Y-110211837D01*
X145407900Y-110211839D01*
X145222387Y-110351126D01*
X145218252Y-110354231D01*
X145050834Y-110529424D01*
X144914278Y-110729608D01*
X144812250Y-110949408D01*
X144747492Y-111182919D01*
X144746943Y-111188056D01*
X144730248Y-111344276D01*
X144721741Y-111423872D01*
X142513955Y-111423872D01*
X143144959Y-110792869D01*
X143207271Y-110758843D01*
X143245036Y-110756443D01*
X143434525Y-110773021D01*
X143440000Y-110773500D01*
X143668087Y-110753545D01*
X143673400Y-110752121D01*
X143673402Y-110752121D01*
X143883933Y-110695709D01*
X143883935Y-110695708D01*
X143889243Y-110694286D01*
X143894225Y-110691963D01*
X144091763Y-110599850D01*
X144091768Y-110599847D01*
X144096750Y-110597524D01*
X144147311Y-110562121D01*
X144279791Y-110469358D01*
X144279794Y-110469356D01*
X144284302Y-110466199D01*
X144446199Y-110304302D01*
X144513117Y-110208734D01*
X144574367Y-110121259D01*
X144574368Y-110121257D01*
X144577524Y-110116750D01*
X144579847Y-110111768D01*
X144579850Y-110111763D01*
X144671963Y-109914225D01*
X144671964Y-109914224D01*
X144674286Y-109909243D01*
X144692791Y-109840184D01*
X144732121Y-109693402D01*
X144732121Y-109693400D01*
X144733545Y-109688087D01*
X144753500Y-109460000D01*
X144733545Y-109231913D01*
X144732121Y-109226598D01*
X144675709Y-109016067D01*
X144675708Y-109016065D01*
X144674286Y-109010757D01*
X144651794Y-108962523D01*
X144579850Y-108808237D01*
X144579847Y-108808232D01*
X144577524Y-108803250D01*
X144574367Y-108798741D01*
X144449358Y-108620209D01*
X144449356Y-108620206D01*
X144446199Y-108615698D01*
X144284302Y-108453801D01*
X144279794Y-108450644D01*
X144279791Y-108450642D01*
X144101259Y-108325633D01*
X144101257Y-108325632D01*
X144096750Y-108322476D01*
X144091768Y-108320153D01*
X144091763Y-108320150D01*
X143894225Y-108228037D01*
X143894224Y-108228036D01*
X143889243Y-108225714D01*
X143883935Y-108224292D01*
X143883933Y-108224291D01*
X143673402Y-108167879D01*
X143673400Y-108167879D01*
X143668087Y-108166455D01*
X143440000Y-108146500D01*
X143211913Y-108166455D01*
X143206600Y-108167879D01*
X143206598Y-108167879D01*
X142996067Y-108224291D01*
X142996065Y-108224292D01*
X142990757Y-108225714D01*
X142985776Y-108228036D01*
X142985775Y-108228037D01*
X142788237Y-108320150D01*
X142788232Y-108320153D01*
X142783250Y-108322476D01*
X142778743Y-108325632D01*
X142778741Y-108325633D01*
X142600209Y-108450642D01*
X142600206Y-108450644D01*
X142595698Y-108453801D01*
X142433801Y-108615698D01*
X142430644Y-108620206D01*
X142430642Y-108620209D01*
X142305633Y-108798741D01*
X142302476Y-108803250D01*
X142300153Y-108808232D01*
X142300150Y-108808237D01*
X142228206Y-108962523D01*
X142205714Y-109010757D01*
X142204292Y-109016065D01*
X142204291Y-109016067D01*
X142147879Y-109226598D01*
X142146455Y-109231913D01*
X142126500Y-109460000D01*
X142146455Y-109688087D01*
X142147879Y-109693402D01*
X142147880Y-109693405D01*
X142154598Y-109718479D01*
X142152908Y-109789455D01*
X142121987Y-109840184D01*
X140654949Y-111307224D01*
X140648683Y-111313078D01*
X140607199Y-111349267D01*
X140571009Y-111400760D01*
X140567098Y-111406026D01*
X140528252Y-111455568D01*
X140525126Y-111462491D01*
X140523256Y-111465579D01*
X140516086Y-111478149D01*
X140514372Y-111481346D01*
X140510004Y-111487561D01*
X140507243Y-111494643D01*
X140487150Y-111546179D01*
X140484598Y-111552252D01*
X140458692Y-111609626D01*
X140457307Y-111617095D01*
X140456228Y-111620539D01*
X140452270Y-111634432D01*
X140451361Y-111637972D01*
X140448603Y-111645047D01*
X140447612Y-111652578D01*
X140447611Y-111652580D01*
X140440390Y-111707430D01*
X140439358Y-111713944D01*
X140427889Y-111775828D01*
X140428326Y-111783408D01*
X140428326Y-111783409D01*
X140431292Y-111834846D01*
X140431501Y-111842099D01*
X140431501Y-112383750D01*
X140411499Y-112451871D01*
X140381154Y-112484510D01*
X140332393Y-112521121D01*
X140332387Y-112521127D01*
X140328252Y-112524231D01*
X140324680Y-112527969D01*
X140324678Y-112527971D01*
X140185241Y-112673884D01*
X140160834Y-112699424D01*
X140144940Y-112722723D01*
X140090032Y-112767725D01*
X140019507Y-112775898D01*
X139955759Y-112744644D01*
X139941027Y-112728600D01*
X139937686Y-112724262D01*
X139781608Y-112552735D01*
X139774075Y-112545710D01*
X139592081Y-112401981D01*
X139583494Y-112396276D01*
X139380482Y-112284207D01*
X139371070Y-112279977D01*
X139152469Y-112202566D01*
X139142512Y-112199936D01*
X139041836Y-112182002D01*
X139028541Y-112183461D01*
X139024000Y-112198019D01*
X138516000Y-112198019D01*
X138516000Y-112196605D01*
X138512082Y-112183261D01*
X138497806Y-112181274D01*
X138432542Y-112191261D01*
X138422515Y-112193650D01*
X138202092Y-112265695D01*
X138192582Y-112269692D01*
X137986891Y-112376768D01*
X137978166Y-112382262D01*
X137843476Y-112483391D01*
X137776991Y-112508297D01*
X137707596Y-112493305D01*
X137661826Y-112450753D01*
X137583277Y-112328529D01*
X137532127Y-112284207D01*
X137479631Y-112238718D01*
X137479628Y-112238716D01*
X137472819Y-112232816D01*
X137399758Y-112199450D01*
X137348064Y-112175842D01*
X137348063Y-112175842D01*
X137339870Y-112172100D01*
X137330955Y-112170818D01*
X137330954Y-112170818D01*
X137199648Y-112151939D01*
X137199641Y-112151938D01*
X137195200Y-112151300D01*
X135264800Y-112151300D01*
X135191721Y-112156527D01*
X135125940Y-112175842D01*
X135060130Y-112195165D01*
X135060128Y-112195166D01*
X135051484Y-112197704D01*
X135043905Y-112202575D01*
X134936109Y-112271851D01*
X134936106Y-112271853D01*
X134928529Y-112276723D01*
X134922628Y-112283533D01*
X134838718Y-112380369D01*
X134838716Y-112380372D01*
X134832816Y-112387181D01*
X134829072Y-112395379D01*
X134785596Y-112490579D01*
X134772100Y-112520130D01*
X134770818Y-112529045D01*
X134770818Y-112529046D01*
X134751939Y-112660352D01*
X134751938Y-112660359D01*
X134751300Y-112664800D01*
X131181778Y-112664800D01*
X131151233Y-112560774D01*
X131149635Y-112555330D01*
X131149634Y-112555328D01*
X131147096Y-112546684D01*
X131086163Y-112451871D01*
X131072949Y-112431309D01*
X131072947Y-112431306D01*
X131068077Y-112423729D01*
X131019734Y-112381839D01*
X130964431Y-112333918D01*
X130964428Y-112333916D01*
X130957619Y-112328016D01*
X130852429Y-112279977D01*
X130832864Y-112271042D01*
X130832863Y-112271042D01*
X130824670Y-112267300D01*
X130815755Y-112266018D01*
X130815754Y-112266018D01*
X130684448Y-112247139D01*
X130684441Y-112247138D01*
X130680000Y-112246500D01*
X128480000Y-112246500D01*
X128406921Y-112251727D01*
X128328835Y-112274655D01*
X128275330Y-112290365D01*
X128275328Y-112290366D01*
X128266684Y-112292904D01*
X128259105Y-112297775D01*
X128151309Y-112367051D01*
X128151306Y-112367053D01*
X128143729Y-112371923D01*
X128137828Y-112378733D01*
X128053918Y-112475569D01*
X128053916Y-112475572D01*
X128048016Y-112482381D01*
X128044272Y-112490579D01*
X128019095Y-112545710D01*
X127987300Y-112615330D01*
X127986018Y-112624245D01*
X127986018Y-112624246D01*
X127967139Y-112755552D01*
X127967138Y-112755559D01*
X127966500Y-112760000D01*
X120595864Y-112760000D01*
X120572304Y-112732416D01*
X120560917Y-112719083D01*
X120492152Y-112660352D01*
X120372157Y-112557866D01*
X120372152Y-112557862D01*
X120368392Y-112554651D01*
X120152514Y-112422361D01*
X120147944Y-112420468D01*
X120147940Y-112420466D01*
X119923172Y-112327364D01*
X119923170Y-112327363D01*
X119918599Y-112325470D01*
X119833894Y-112305134D01*
X119677220Y-112267520D01*
X119677214Y-112267519D01*
X119672407Y-112266365D01*
X119420000Y-112246500D01*
X119167593Y-112266365D01*
X119162786Y-112267519D01*
X119162780Y-112267520D01*
X119006106Y-112305134D01*
X118921401Y-112325470D01*
X118916830Y-112327363D01*
X118916828Y-112327364D01*
X118692060Y-112420466D01*
X118692056Y-112420468D01*
X118687486Y-112422361D01*
X118471608Y-112554651D01*
X118467848Y-112557862D01*
X118467843Y-112557866D01*
X118347848Y-112660352D01*
X118279083Y-112719083D01*
X118267696Y-112732416D01*
X118117866Y-112907843D01*
X118117862Y-112907848D01*
X118114651Y-112911608D01*
X117982361Y-113127486D01*
X117980468Y-113132056D01*
X117980466Y-113132060D01*
X117925264Y-113265329D01*
X117885470Y-113361401D01*
X117884315Y-113366213D01*
X117845359Y-113528478D01*
X117826365Y-113607593D01*
X117806500Y-113860000D01*
X113630000Y-113860000D01*
X113630000Y-107940000D01*
X123046500Y-107940000D01*
X123046500Y-109540000D01*
X123051727Y-109613079D01*
X123092904Y-109753316D01*
X123097775Y-109760895D01*
X123167051Y-109868691D01*
X123167053Y-109868694D01*
X123171923Y-109876271D01*
X123178733Y-109882172D01*
X123275569Y-109966082D01*
X123275572Y-109966084D01*
X123282381Y-109971984D01*
X123415330Y-110032700D01*
X123424245Y-110033982D01*
X123424246Y-110033982D01*
X123555552Y-110052861D01*
X123555559Y-110052862D01*
X123560000Y-110053500D01*
X125160000Y-110053500D01*
X125233079Y-110048273D01*
X125311165Y-110025345D01*
X125364670Y-110009635D01*
X125364672Y-110009634D01*
X125373316Y-110007096D01*
X125437135Y-109966082D01*
X125488691Y-109932949D01*
X125488694Y-109932947D01*
X125496271Y-109928077D01*
X125536048Y-109882172D01*
X125584666Y-109826064D01*
X126138490Y-109826064D01*
X126147784Y-109838078D01*
X126198992Y-109873934D01*
X126208487Y-109879417D01*
X126405943Y-109971491D01*
X126416239Y-109975239D01*
X126626690Y-110031630D01*
X126637477Y-110033532D01*
X126854525Y-110052521D01*
X126865475Y-110052521D01*
X127082523Y-110033532D01*
X127093310Y-110031630D01*
X127303761Y-109975239D01*
X127314057Y-109971491D01*
X127511513Y-109879417D01*
X127521008Y-109873934D01*
X127573050Y-109837494D01*
X127581426Y-109827015D01*
X127574359Y-109813570D01*
X126872811Y-109112021D01*
X126858868Y-109104408D01*
X126857034Y-109104539D01*
X126850420Y-109108790D01*
X126144917Y-109814294D01*
X126138490Y-109826064D01*
X125584666Y-109826064D01*
X125586082Y-109824431D01*
X125586084Y-109824428D01*
X125591984Y-109817619D01*
X125652700Y-109684670D01*
X125668666Y-109573622D01*
X125698159Y-109509041D01*
X125738602Y-109483050D01*
X125737139Y-109480267D01*
X125786430Y-109454359D01*
X126487979Y-108752811D01*
X126494355Y-108741132D01*
X127224408Y-108741132D01*
X127224539Y-108742966D01*
X127228790Y-108749580D01*
X127934294Y-109455083D01*
X127946064Y-109461510D01*
X127948015Y-109460000D01*
X134506500Y-109460000D01*
X134526455Y-109688087D01*
X134527879Y-109693400D01*
X134527879Y-109693402D01*
X134567210Y-109840184D01*
X134585714Y-109909243D01*
X134588036Y-109914224D01*
X134588037Y-109914225D01*
X134680150Y-110111763D01*
X134680153Y-110111768D01*
X134682476Y-110116750D01*
X134685632Y-110121257D01*
X134685633Y-110121259D01*
X134746884Y-110208734D01*
X134813801Y-110304302D01*
X134975698Y-110466199D01*
X134980206Y-110469356D01*
X134980209Y-110469358D01*
X135112689Y-110562121D01*
X135163250Y-110597524D01*
X135168232Y-110599847D01*
X135168237Y-110599850D01*
X135365775Y-110691963D01*
X135370757Y-110694286D01*
X135376065Y-110695708D01*
X135376067Y-110695709D01*
X135586598Y-110752121D01*
X135586600Y-110752121D01*
X135591913Y-110753545D01*
X135820000Y-110773500D01*
X136048087Y-110753545D01*
X136053400Y-110752121D01*
X136053402Y-110752121D01*
X136263933Y-110695709D01*
X136263935Y-110695708D01*
X136269243Y-110694286D01*
X136274225Y-110691963D01*
X136471763Y-110599850D01*
X136471768Y-110599847D01*
X136476750Y-110597524D01*
X136527311Y-110562121D01*
X136659791Y-110469358D01*
X136659794Y-110469356D01*
X136664302Y-110466199D01*
X136826199Y-110304302D01*
X136893117Y-110208734D01*
X136954367Y-110121259D01*
X136954368Y-110121257D01*
X136957524Y-110116750D01*
X136959847Y-110111768D01*
X136959850Y-110111763D01*
X137051963Y-109914225D01*
X137051964Y-109914224D01*
X137054286Y-109909243D01*
X137072791Y-109840184D01*
X137112121Y-109693402D01*
X137112121Y-109693400D01*
X137113545Y-109688087D01*
X137133500Y-109460000D01*
X137113545Y-109231913D01*
X137112121Y-109226598D01*
X137055709Y-109016067D01*
X137055708Y-109016065D01*
X137054286Y-109010757D01*
X137031794Y-108962523D01*
X136959850Y-108808237D01*
X136959847Y-108808232D01*
X136957524Y-108803250D01*
X136954367Y-108798741D01*
X136829358Y-108620209D01*
X136829356Y-108620206D01*
X136826199Y-108615698D01*
X136664302Y-108453801D01*
X136659794Y-108450644D01*
X136659791Y-108450642D01*
X136481259Y-108325633D01*
X136481257Y-108325632D01*
X136476750Y-108322476D01*
X136471768Y-108320153D01*
X136471763Y-108320150D01*
X136274225Y-108228037D01*
X136274224Y-108228036D01*
X136269243Y-108225714D01*
X136263935Y-108224292D01*
X136263933Y-108224291D01*
X136053402Y-108167879D01*
X136053400Y-108167879D01*
X136048087Y-108166455D01*
X135820000Y-108146500D01*
X135591913Y-108166455D01*
X135586600Y-108167879D01*
X135586598Y-108167879D01*
X135376067Y-108224291D01*
X135376065Y-108224292D01*
X135370757Y-108225714D01*
X135365776Y-108228036D01*
X135365775Y-108228037D01*
X135168237Y-108320150D01*
X135168232Y-108320153D01*
X135163250Y-108322476D01*
X135158743Y-108325632D01*
X135158741Y-108325633D01*
X134980209Y-108450642D01*
X134980206Y-108450644D01*
X134975698Y-108453801D01*
X134813801Y-108615698D01*
X134810644Y-108620206D01*
X134810642Y-108620209D01*
X134685633Y-108798741D01*
X134682476Y-108803250D01*
X134680153Y-108808232D01*
X134680150Y-108808237D01*
X134608206Y-108962523D01*
X134585714Y-109010757D01*
X134584292Y-109016065D01*
X134584291Y-109016067D01*
X134527879Y-109226598D01*
X134526455Y-109231913D01*
X134506500Y-109460000D01*
X127948015Y-109460000D01*
X127958078Y-109452216D01*
X127993934Y-109401008D01*
X127999417Y-109391513D01*
X128091491Y-109194057D01*
X128095239Y-109183761D01*
X128151630Y-108973310D01*
X128153532Y-108962523D01*
X128172521Y-108745475D01*
X128172521Y-108734525D01*
X128153532Y-108517477D01*
X128151630Y-108506690D01*
X128095239Y-108296239D01*
X128091491Y-108285943D01*
X127999417Y-108088487D01*
X127993934Y-108078992D01*
X127957494Y-108026950D01*
X127947015Y-108018574D01*
X127933570Y-108025641D01*
X127232021Y-108727189D01*
X127224408Y-108741132D01*
X126494355Y-108741132D01*
X126495592Y-108738868D01*
X126495461Y-108737034D01*
X126491210Y-108730420D01*
X125785706Y-108024917D01*
X125742379Y-108001259D01*
X125735818Y-107999832D01*
X125685610Y-107949636D01*
X125670512Y-107898227D01*
X125668755Y-107873659D01*
X125668755Y-107873658D01*
X125668273Y-107866921D01*
X125641186Y-107774670D01*
X125629635Y-107735330D01*
X125629634Y-107735328D01*
X125627096Y-107726684D01*
X125581393Y-107655569D01*
X125579733Y-107652985D01*
X126138574Y-107652985D01*
X126145641Y-107666430D01*
X126847189Y-108367979D01*
X126861132Y-108375592D01*
X126862966Y-108375461D01*
X126869580Y-108371210D01*
X127575083Y-107665706D01*
X127581510Y-107653936D01*
X127572216Y-107641922D01*
X127521008Y-107606066D01*
X127511513Y-107600583D01*
X127314057Y-107508509D01*
X127303761Y-107504761D01*
X127093310Y-107448370D01*
X127082523Y-107446468D01*
X126865475Y-107427479D01*
X126854525Y-107427479D01*
X126637477Y-107446468D01*
X126626690Y-107448370D01*
X126416239Y-107504761D01*
X126405943Y-107508509D01*
X126208487Y-107600583D01*
X126198992Y-107606066D01*
X126146950Y-107642506D01*
X126138574Y-107652985D01*
X125579733Y-107652985D01*
X125552949Y-107611309D01*
X125552947Y-107611306D01*
X125548077Y-107603729D01*
X125534044Y-107591569D01*
X125444431Y-107513918D01*
X125444428Y-107513916D01*
X125437619Y-107508016D01*
X125371401Y-107477775D01*
X125312864Y-107451042D01*
X125312863Y-107451042D01*
X125304670Y-107447300D01*
X125295755Y-107446018D01*
X125295754Y-107446018D01*
X125164448Y-107427139D01*
X125164441Y-107427138D01*
X125160000Y-107426500D01*
X123560000Y-107426500D01*
X123486921Y-107431727D01*
X123433884Y-107447300D01*
X123355330Y-107470365D01*
X123355328Y-107470366D01*
X123346684Y-107472904D01*
X123339105Y-107477775D01*
X123231309Y-107547051D01*
X123231306Y-107547053D01*
X123223729Y-107551923D01*
X123217828Y-107558733D01*
X123133918Y-107655569D01*
X123133916Y-107655572D01*
X123128016Y-107662381D01*
X123067300Y-107795330D01*
X123066018Y-107804245D01*
X123066018Y-107804246D01*
X123047139Y-107935552D01*
X123047138Y-107935559D01*
X123046500Y-107940000D01*
X113630000Y-107940000D01*
X113630000Y-107535576D01*
X113650002Y-107467455D01*
X113703658Y-107420962D01*
X113773932Y-107410858D01*
X113838512Y-107440352D01*
X113927181Y-107517184D01*
X113935379Y-107520928D01*
X114003249Y-107551923D01*
X114060130Y-107577900D01*
X114069045Y-107579182D01*
X114069046Y-107579182D01*
X114200352Y-107598061D01*
X114200359Y-107598062D01*
X114204800Y-107598700D01*
X116135200Y-107598700D01*
X116208279Y-107593473D01*
X116286365Y-107570545D01*
X116339870Y-107554835D01*
X116339872Y-107554834D01*
X116348516Y-107552296D01*
X116412335Y-107511282D01*
X116463891Y-107478149D01*
X116463894Y-107478147D01*
X116471471Y-107473277D01*
X116493053Y-107448370D01*
X116561282Y-107369631D01*
X116561284Y-107369628D01*
X116567184Y-107362819D01*
X116612175Y-107264302D01*
X116624158Y-107238064D01*
X116624158Y-107238063D01*
X116627900Y-107229870D01*
X116638193Y-107158279D01*
X116648061Y-107089648D01*
X116648062Y-107089641D01*
X116648700Y-107085200D01*
X116648700Y-105830000D01*
X137363441Y-105830000D01*
X137363441Y-107630000D01*
X137368668Y-107703079D01*
X137389689Y-107774670D01*
X137399928Y-107809540D01*
X137409845Y-107843316D01*
X137414716Y-107850895D01*
X137483992Y-107958691D01*
X137483994Y-107958694D01*
X137488864Y-107966271D01*
X137495674Y-107972172D01*
X137592510Y-108056082D01*
X137592513Y-108056084D01*
X137599322Y-108061984D01*
X137607520Y-108065728D01*
X137719129Y-108116698D01*
X137732271Y-108122700D01*
X137741186Y-108123982D01*
X137741187Y-108123982D01*
X137872493Y-108142861D01*
X137872500Y-108142862D01*
X137876941Y-108143500D01*
X139676941Y-108143500D01*
X139750020Y-108138273D01*
X139830586Y-108114617D01*
X139881611Y-108099635D01*
X139881613Y-108099634D01*
X139890257Y-108097096D01*
X139967758Y-108047289D01*
X140005632Y-108022949D01*
X140005635Y-108022947D01*
X140013212Y-108018077D01*
X140027785Y-108001259D01*
X140103023Y-107914431D01*
X140103025Y-107914428D01*
X140108925Y-107907619D01*
X140157371Y-107801536D01*
X140203864Y-107747881D01*
X140271985Y-107727879D01*
X140340106Y-107747881D01*
X140356369Y-107760310D01*
X140462340Y-107855895D01*
X140466853Y-107858754D01*
X140466855Y-107858755D01*
X140529173Y-107898227D01*
X140664259Y-107983790D01*
X140758102Y-108022949D01*
X140851648Y-108061984D01*
X140884841Y-108075835D01*
X140988343Y-108099635D01*
X141112570Y-108128201D01*
X141112574Y-108128202D01*
X141117777Y-108129398D01*
X141123110Y-108129701D01*
X141123111Y-108129701D01*
X141237093Y-108136174D01*
X141356408Y-108142949D01*
X141361715Y-108142349D01*
X141361717Y-108142349D01*
X141486862Y-108128201D01*
X141593911Y-108116099D01*
X141599026Y-108114618D01*
X141599030Y-108114617D01*
X141818371Y-108051100D01*
X141818376Y-108051098D01*
X141823494Y-108049616D01*
X142038593Y-107945401D01*
X142163844Y-107855895D01*
X142228712Y-107809540D01*
X142228714Y-107809538D01*
X142233058Y-107806434D01*
X142310931Y-107727879D01*
X142397576Y-107640475D01*
X142397577Y-107640474D01*
X142401329Y-107636689D01*
X142491594Y-107508016D01*
X142535529Y-107445387D01*
X142535530Y-107445385D01*
X142538593Y-107441019D01*
X142547461Y-107422302D01*
X142638642Y-107229841D01*
X142640927Y-107225018D01*
X142705404Y-106994863D01*
X142717978Y-106874225D01*
X142729874Y-106760083D01*
X142729874Y-106760080D01*
X142730181Y-106757136D01*
X142730441Y-106730000D01*
X142710233Y-106491840D01*
X142691587Y-106420000D01*
X143086500Y-106420000D01*
X143106455Y-106648087D01*
X143107879Y-106653400D01*
X143107879Y-106653402D01*
X143134881Y-106754172D01*
X143165714Y-106869243D01*
X143168036Y-106874224D01*
X143168037Y-106874225D01*
X143260150Y-107071763D01*
X143260153Y-107071768D01*
X143262476Y-107076750D01*
X143265632Y-107081257D01*
X143265633Y-107081259D01*
X143369692Y-107229870D01*
X143393801Y-107264302D01*
X143555698Y-107426199D01*
X143560206Y-107429356D01*
X143560209Y-107429358D01*
X143738741Y-107554367D01*
X143743250Y-107557524D01*
X143748232Y-107559847D01*
X143748237Y-107559850D01*
X143945775Y-107651963D01*
X143950757Y-107654286D01*
X143956065Y-107655708D01*
X143956067Y-107655709D01*
X144166598Y-107712121D01*
X144166600Y-107712121D01*
X144171913Y-107713545D01*
X144400000Y-107733500D01*
X144628087Y-107713545D01*
X144633400Y-107712121D01*
X144633402Y-107712121D01*
X144843933Y-107655709D01*
X144843935Y-107655708D01*
X144849243Y-107654286D01*
X144854225Y-107651963D01*
X145051763Y-107559850D01*
X145051768Y-107559847D01*
X145056750Y-107557524D01*
X145061259Y-107554367D01*
X145239791Y-107429358D01*
X145239794Y-107429356D01*
X145244302Y-107426199D01*
X145406199Y-107264302D01*
X145430309Y-107229870D01*
X145534367Y-107081259D01*
X145534368Y-107081257D01*
X145537524Y-107076750D01*
X145539847Y-107071768D01*
X145539850Y-107071763D01*
X145631963Y-106874225D01*
X145631964Y-106874224D01*
X145634286Y-106869243D01*
X145665120Y-106754172D01*
X145692121Y-106653402D01*
X145692121Y-106653400D01*
X145693545Y-106648087D01*
X145713500Y-106420000D01*
X150706500Y-106420000D01*
X150726455Y-106648087D01*
X150727879Y-106653400D01*
X150727879Y-106653402D01*
X150754881Y-106754172D01*
X150785714Y-106869243D01*
X150788036Y-106874224D01*
X150788037Y-106874225D01*
X150880150Y-107071763D01*
X150880153Y-107071768D01*
X150882476Y-107076750D01*
X150885632Y-107081257D01*
X150885633Y-107081259D01*
X150989692Y-107229870D01*
X151013801Y-107264302D01*
X151175698Y-107426199D01*
X151180206Y-107429356D01*
X151180209Y-107429358D01*
X151358741Y-107554367D01*
X151363250Y-107557524D01*
X151368232Y-107559847D01*
X151368237Y-107559850D01*
X151565775Y-107651963D01*
X151570757Y-107654286D01*
X151576065Y-107655708D01*
X151576067Y-107655709D01*
X151786598Y-107712121D01*
X151786600Y-107712121D01*
X151791913Y-107713545D01*
X152020000Y-107733500D01*
X152248087Y-107713545D01*
X152253400Y-107712121D01*
X152253402Y-107712121D01*
X152463933Y-107655709D01*
X152463935Y-107655708D01*
X152469243Y-107654286D01*
X152474225Y-107651963D01*
X152671763Y-107559850D01*
X152671768Y-107559847D01*
X152676750Y-107557524D01*
X152681259Y-107554367D01*
X152859791Y-107429358D01*
X152859794Y-107429356D01*
X152864302Y-107426199D01*
X153026199Y-107264302D01*
X153050309Y-107229870D01*
X153154367Y-107081259D01*
X153154368Y-107081257D01*
X153157524Y-107076750D01*
X153159847Y-107071768D01*
X153159850Y-107071763D01*
X153251963Y-106874225D01*
X153251964Y-106874224D01*
X153254286Y-106869243D01*
X153285120Y-106754172D01*
X153312121Y-106653402D01*
X153312121Y-106653400D01*
X153313545Y-106648087D01*
X153333500Y-106420000D01*
X153313545Y-106191913D01*
X153273527Y-106042565D01*
X153255709Y-105976067D01*
X153255708Y-105976065D01*
X153254286Y-105970757D01*
X153251963Y-105965775D01*
X153159850Y-105768237D01*
X153159847Y-105768232D01*
X153157524Y-105763250D01*
X153154367Y-105758741D01*
X153029358Y-105580209D01*
X153029356Y-105580206D01*
X153026199Y-105575698D01*
X152864302Y-105413801D01*
X152859794Y-105410644D01*
X152859791Y-105410642D01*
X152681259Y-105285633D01*
X152681257Y-105285632D01*
X152676750Y-105282476D01*
X152671768Y-105280153D01*
X152671763Y-105280150D01*
X152474225Y-105188037D01*
X152474224Y-105188036D01*
X152469243Y-105185714D01*
X152463935Y-105184292D01*
X152463933Y-105184291D01*
X152253402Y-105127879D01*
X152253400Y-105127879D01*
X152248087Y-105126455D01*
X152020000Y-105106500D01*
X151791913Y-105126455D01*
X151786600Y-105127879D01*
X151786598Y-105127879D01*
X151576067Y-105184291D01*
X151576065Y-105184292D01*
X151570757Y-105185714D01*
X151565776Y-105188036D01*
X151565775Y-105188037D01*
X151368237Y-105280150D01*
X151368232Y-105280153D01*
X151363250Y-105282476D01*
X151358743Y-105285632D01*
X151358741Y-105285633D01*
X151180209Y-105410642D01*
X151180206Y-105410644D01*
X151175698Y-105413801D01*
X151013801Y-105575698D01*
X151010644Y-105580206D01*
X151010642Y-105580209D01*
X150885633Y-105758741D01*
X150882476Y-105763250D01*
X150880153Y-105768232D01*
X150880150Y-105768237D01*
X150788037Y-105965775D01*
X150785714Y-105970757D01*
X150784292Y-105976065D01*
X150784291Y-105976067D01*
X150766473Y-106042565D01*
X150726455Y-106191913D01*
X150706500Y-106420000D01*
X145713500Y-106420000D01*
X145693545Y-106191913D01*
X145653527Y-106042565D01*
X145635709Y-105976067D01*
X145635708Y-105976065D01*
X145634286Y-105970757D01*
X145631963Y-105965775D01*
X145539850Y-105768237D01*
X145539847Y-105768232D01*
X145537524Y-105763250D01*
X145534367Y-105758741D01*
X145409358Y-105580209D01*
X145409356Y-105580206D01*
X145406199Y-105575698D01*
X145244302Y-105413801D01*
X145239794Y-105410644D01*
X145239791Y-105410642D01*
X145061259Y-105285633D01*
X145061257Y-105285632D01*
X145056750Y-105282476D01*
X145051768Y-105280153D01*
X145051763Y-105280150D01*
X144854225Y-105188037D01*
X144854224Y-105188036D01*
X144849243Y-105185714D01*
X144843935Y-105184292D01*
X144843933Y-105184291D01*
X144633402Y-105127879D01*
X144633400Y-105127879D01*
X144628087Y-105126455D01*
X144400000Y-105106500D01*
X144171913Y-105126455D01*
X144166600Y-105127879D01*
X144166598Y-105127879D01*
X143956067Y-105184291D01*
X143956065Y-105184292D01*
X143950757Y-105185714D01*
X143945776Y-105188036D01*
X143945775Y-105188037D01*
X143748237Y-105280150D01*
X143748232Y-105280153D01*
X143743250Y-105282476D01*
X143738743Y-105285632D01*
X143738741Y-105285633D01*
X143560209Y-105410642D01*
X143560206Y-105410644D01*
X143555698Y-105413801D01*
X143393801Y-105575698D01*
X143390644Y-105580206D01*
X143390642Y-105580209D01*
X143265633Y-105758741D01*
X143262476Y-105763250D01*
X143260153Y-105768232D01*
X143260150Y-105768237D01*
X143168037Y-105965775D01*
X143165714Y-105970757D01*
X143164292Y-105976065D01*
X143164291Y-105976067D01*
X143146473Y-106042565D01*
X143106455Y-106191913D01*
X143086500Y-106420000D01*
X142691587Y-106420000D01*
X142650186Y-106260490D01*
X142552018Y-106042565D01*
X142418535Y-105844296D01*
X142409187Y-105834496D01*
X142281199Y-105700331D01*
X142253554Y-105671351D01*
X142191700Y-105625330D01*
X142066075Y-105531863D01*
X142061793Y-105528677D01*
X142057042Y-105526261D01*
X142057038Y-105526259D01*
X141853490Y-105422770D01*
X141853489Y-105422770D01*
X141848734Y-105420352D01*
X141620469Y-105349474D01*
X141556852Y-105341042D01*
X141388809Y-105318769D01*
X141388806Y-105318769D01*
X141383526Y-105318069D01*
X141378197Y-105318269D01*
X141378196Y-105318269D01*
X141298929Y-105321245D01*
X141144679Y-105327036D01*
X141077927Y-105341042D01*
X140915984Y-105375021D01*
X140915981Y-105375022D01*
X140910757Y-105376118D01*
X140688449Y-105463911D01*
X140683885Y-105466680D01*
X140683886Y-105466680D01*
X140488673Y-105585138D01*
X140488670Y-105585140D01*
X140484112Y-105587906D01*
X140354553Y-105700332D01*
X140289995Y-105729871D01*
X140219714Y-105719817D01*
X140166025Y-105673363D01*
X140151078Y-105640664D01*
X140146576Y-105625330D01*
X140146575Y-105625328D01*
X140144037Y-105616684D01*
X140098334Y-105545569D01*
X140069890Y-105501309D01*
X140069888Y-105501306D01*
X140065018Y-105493729D01*
X140033802Y-105466680D01*
X139961372Y-105403918D01*
X139961369Y-105403916D01*
X139954560Y-105398016D01*
X139872116Y-105360365D01*
X139829805Y-105341042D01*
X139829804Y-105341042D01*
X139821611Y-105337300D01*
X139812696Y-105336018D01*
X139812695Y-105336018D01*
X139681389Y-105317139D01*
X139681382Y-105317138D01*
X139676941Y-105316500D01*
X137876941Y-105316500D01*
X137803862Y-105321727D01*
X137750825Y-105337300D01*
X137672271Y-105360365D01*
X137672269Y-105360366D01*
X137663625Y-105362904D01*
X137656046Y-105367775D01*
X137548250Y-105437051D01*
X137548247Y-105437053D01*
X137540670Y-105441923D01*
X137534769Y-105448733D01*
X137450859Y-105545569D01*
X137450857Y-105545572D01*
X137444957Y-105552381D01*
X137441213Y-105560579D01*
X137388864Y-105675208D01*
X137384241Y-105685330D01*
X137382959Y-105694245D01*
X137382959Y-105694246D01*
X137364080Y-105825552D01*
X137364079Y-105825559D01*
X137363441Y-105830000D01*
X116648700Y-105830000D01*
X116648700Y-105154800D01*
X116643473Y-105081721D01*
X116602296Y-104941484D01*
X116560971Y-104877181D01*
X116528149Y-104826109D01*
X116528147Y-104826106D01*
X116523277Y-104818529D01*
X116486537Y-104786693D01*
X116419631Y-104728718D01*
X116419628Y-104728716D01*
X116412819Y-104722816D01*
X116364099Y-104700566D01*
X116310444Y-104654074D01*
X116290442Y-104585953D01*
X116314119Y-104512427D01*
X116434047Y-104345529D01*
X116439358Y-104336690D01*
X116542102Y-104128804D01*
X116545900Y-104119211D01*
X116613313Y-103897326D01*
X116615491Y-103887253D01*
X116620138Y-103851960D01*
X116617926Y-103837778D01*
X116604769Y-103834000D01*
X115424002Y-103833999D01*
X115423996Y-103834000D01*
X115042000Y-103833999D01*
X114973879Y-103813997D01*
X114927386Y-103760341D01*
X114916000Y-103707999D01*
X114916000Y-103680000D01*
X122216500Y-103680000D01*
X122236455Y-103908087D01*
X122237879Y-103913400D01*
X122237879Y-103913402D01*
X122292431Y-104116989D01*
X122295714Y-104129243D01*
X122298036Y-104134224D01*
X122298037Y-104134225D01*
X122390150Y-104331763D01*
X122390153Y-104331768D01*
X122392476Y-104336750D01*
X122523801Y-104524302D01*
X122685698Y-104686199D01*
X122690206Y-104689356D01*
X122690209Y-104689358D01*
X122868741Y-104814367D01*
X122873250Y-104817524D01*
X122878232Y-104819847D01*
X122878237Y-104819850D01*
X123075775Y-104911963D01*
X123080757Y-104914286D01*
X123086065Y-104915708D01*
X123086067Y-104915709D01*
X123296598Y-104972121D01*
X123296600Y-104972121D01*
X123301913Y-104973545D01*
X123530000Y-104993500D01*
X123758087Y-104973545D01*
X123763400Y-104972121D01*
X123763402Y-104972121D01*
X123973933Y-104915709D01*
X123973935Y-104915708D01*
X123979243Y-104914286D01*
X123984225Y-104911963D01*
X124181763Y-104819850D01*
X124181768Y-104819847D01*
X124186750Y-104817524D01*
X124191259Y-104814367D01*
X124369791Y-104689358D01*
X124369794Y-104689356D01*
X124374302Y-104686199D01*
X124536199Y-104524302D01*
X124667524Y-104336750D01*
X124669847Y-104331768D01*
X124669850Y-104331763D01*
X124761963Y-104134225D01*
X124761964Y-104134224D01*
X124764286Y-104129243D01*
X124767570Y-104116989D01*
X124822121Y-103913402D01*
X124822121Y-103913400D01*
X124823545Y-103908087D01*
X124843500Y-103680000D01*
X129836500Y-103680000D01*
X129856455Y-103908087D01*
X129857879Y-103913400D01*
X129857879Y-103913402D01*
X129912431Y-104116989D01*
X129915714Y-104129243D01*
X129918036Y-104134224D01*
X129918037Y-104134225D01*
X130010150Y-104331763D01*
X130010153Y-104331768D01*
X130012476Y-104336750D01*
X130143801Y-104524302D01*
X130305698Y-104686199D01*
X130310206Y-104689356D01*
X130310209Y-104689358D01*
X130488741Y-104814367D01*
X130493250Y-104817524D01*
X130498232Y-104819847D01*
X130498237Y-104819850D01*
X130695775Y-104911963D01*
X130700757Y-104914286D01*
X130706065Y-104915708D01*
X130706067Y-104915709D01*
X130916598Y-104972121D01*
X130916600Y-104972121D01*
X130921913Y-104973545D01*
X131150000Y-104993500D01*
X131378087Y-104973545D01*
X131383400Y-104972121D01*
X131383402Y-104972121D01*
X131593933Y-104915709D01*
X131593935Y-104915708D01*
X131599243Y-104914286D01*
X131604225Y-104911963D01*
X131801763Y-104819850D01*
X131801768Y-104819847D01*
X131806750Y-104817524D01*
X131811259Y-104814367D01*
X131989791Y-104689358D01*
X131989794Y-104689356D01*
X131994302Y-104686199D01*
X132156199Y-104524302D01*
X132287524Y-104336750D01*
X132289847Y-104331768D01*
X132289850Y-104331763D01*
X132381963Y-104134225D01*
X132381964Y-104134224D01*
X132384286Y-104129243D01*
X132387570Y-104116989D01*
X132442121Y-103913402D01*
X132442121Y-103913400D01*
X132443545Y-103908087D01*
X132463500Y-103680000D01*
X132443545Y-103451913D01*
X132431497Y-103406948D01*
X132385709Y-103236067D01*
X132385708Y-103236065D01*
X132384286Y-103230757D01*
X132381963Y-103225775D01*
X132289850Y-103028237D01*
X132289847Y-103028232D01*
X132287524Y-103023250D01*
X132241442Y-102957438D01*
X132159358Y-102840209D01*
X132159356Y-102840206D01*
X132156199Y-102835698D01*
X131994302Y-102673801D01*
X131989794Y-102670644D01*
X131989791Y-102670642D01*
X131811259Y-102545633D01*
X131811257Y-102545632D01*
X131806750Y-102542476D01*
X131801768Y-102540153D01*
X131801763Y-102540150D01*
X131604225Y-102448037D01*
X131604224Y-102448036D01*
X131599243Y-102445714D01*
X131593935Y-102444292D01*
X131593933Y-102444291D01*
X131383402Y-102387879D01*
X131383400Y-102387879D01*
X131378087Y-102386455D01*
X131150000Y-102366500D01*
X130921913Y-102386455D01*
X130916600Y-102387879D01*
X130916598Y-102387879D01*
X130706067Y-102444291D01*
X130706065Y-102444292D01*
X130700757Y-102445714D01*
X130695776Y-102448036D01*
X130695775Y-102448037D01*
X130498237Y-102540150D01*
X130498232Y-102540153D01*
X130493250Y-102542476D01*
X130488743Y-102545632D01*
X130488741Y-102545633D01*
X130310209Y-102670642D01*
X130310206Y-102670644D01*
X130305698Y-102673801D01*
X130143801Y-102835698D01*
X130140644Y-102840206D01*
X130140642Y-102840209D01*
X130058558Y-102957438D01*
X130012476Y-103023250D01*
X130010153Y-103028232D01*
X130010150Y-103028237D01*
X129918037Y-103225775D01*
X129915714Y-103230757D01*
X129914292Y-103236065D01*
X129914291Y-103236067D01*
X129868503Y-103406948D01*
X129856455Y-103451913D01*
X129836500Y-103680000D01*
X124843500Y-103680000D01*
X124823545Y-103451913D01*
X124811497Y-103406948D01*
X124765709Y-103236067D01*
X124765708Y-103236065D01*
X124764286Y-103230757D01*
X124761963Y-103225775D01*
X124669850Y-103028237D01*
X124669847Y-103028232D01*
X124667524Y-103023250D01*
X124621442Y-102957438D01*
X124539358Y-102840209D01*
X124539356Y-102840206D01*
X124536199Y-102835698D01*
X124374302Y-102673801D01*
X124369794Y-102670644D01*
X124369791Y-102670642D01*
X124191259Y-102545633D01*
X124191257Y-102545632D01*
X124186750Y-102542476D01*
X124181768Y-102540153D01*
X124181763Y-102540150D01*
X123984225Y-102448037D01*
X123984224Y-102448036D01*
X123979243Y-102445714D01*
X123973935Y-102444292D01*
X123973933Y-102444291D01*
X123763402Y-102387879D01*
X123763400Y-102387879D01*
X123758087Y-102386455D01*
X123530000Y-102366500D01*
X123301913Y-102386455D01*
X123296600Y-102387879D01*
X123296598Y-102387879D01*
X123086067Y-102444291D01*
X123086065Y-102444292D01*
X123080757Y-102445714D01*
X123075776Y-102448036D01*
X123075775Y-102448037D01*
X122878237Y-102540150D01*
X122878232Y-102540153D01*
X122873250Y-102542476D01*
X122868743Y-102545632D01*
X122868741Y-102545633D01*
X122690209Y-102670642D01*
X122690206Y-102670644D01*
X122685698Y-102673801D01*
X122523801Y-102835698D01*
X122520644Y-102840206D01*
X122520642Y-102840209D01*
X122438558Y-102957438D01*
X122392476Y-103023250D01*
X122390153Y-103028232D01*
X122390150Y-103028237D01*
X122298037Y-103225775D01*
X122295714Y-103230757D01*
X122294292Y-103236065D01*
X122294291Y-103236067D01*
X122248503Y-103406948D01*
X122236455Y-103451913D01*
X122216500Y-103680000D01*
X114916000Y-103680000D01*
X114916000Y-103307885D01*
X115423999Y-103307885D01*
X115428474Y-103323124D01*
X115429864Y-103324329D01*
X115437547Y-103326000D01*
X116607078Y-103326001D01*
X116620609Y-103322028D01*
X116621914Y-103312948D01*
X116570596Y-103108638D01*
X116567278Y-103098891D01*
X116474803Y-102886212D01*
X116469936Y-102877137D01*
X116343973Y-102682426D01*
X116337682Y-102674257D01*
X116181608Y-102502735D01*
X116174075Y-102495710D01*
X115992081Y-102351981D01*
X115983494Y-102346276D01*
X115780482Y-102234207D01*
X115771070Y-102229977D01*
X115552469Y-102152566D01*
X115542512Y-102149936D01*
X115441836Y-102132002D01*
X115428541Y-102133461D01*
X115424000Y-102148019D01*
X115423999Y-103307885D01*
X114916000Y-103307885D01*
X114916001Y-102146605D01*
X114912083Y-102133261D01*
X114897807Y-102131274D01*
X114832542Y-102141261D01*
X114822517Y-102143649D01*
X114602092Y-102215695D01*
X114592582Y-102219692D01*
X114386891Y-102326768D01*
X114378166Y-102332262D01*
X114192719Y-102471500D01*
X114185012Y-102478343D01*
X114024795Y-102646002D01*
X114018308Y-102654012D01*
X113887630Y-102845579D01*
X113882537Y-102854543D01*
X113870288Y-102880931D01*
X113823464Y-102934297D01*
X113755220Y-102953878D01*
X113687225Y-102933454D01*
X113641065Y-102879512D01*
X113630000Y-102827880D01*
X113630000Y-97403313D01*
X113897111Y-97403313D01*
X113897335Y-97407979D01*
X113897335Y-97407984D01*
X113899834Y-97460000D01*
X113909794Y-97667354D01*
X113961365Y-97926620D01*
X114050692Y-98175415D01*
X114056065Y-98185415D01*
X114172451Y-98402020D01*
X114175811Y-98408274D01*
X114178606Y-98412017D01*
X114178608Y-98412020D01*
X114331183Y-98616343D01*
X114331188Y-98616349D01*
X114333975Y-98620081D01*
X114337284Y-98623361D01*
X114337289Y-98623367D01*
X114514957Y-98799491D01*
X114521709Y-98806184D01*
X114525471Y-98808942D01*
X114525474Y-98808945D01*
X114724225Y-98954675D01*
X114734889Y-98962494D01*
X114739032Y-98964674D01*
X114739034Y-98964675D01*
X114964681Y-99083394D01*
X114964686Y-99083396D01*
X114968831Y-99085577D01*
X114973254Y-99087122D01*
X114973255Y-99087122D01*
X115185345Y-99161187D01*
X115218396Y-99172729D01*
X115383194Y-99204016D01*
X115446387Y-99236373D01*
X115482056Y-99297759D01*
X115478875Y-99368684D01*
X115437854Y-99426631D01*
X115412941Y-99442000D01*
X115288237Y-99500150D01*
X115288232Y-99500153D01*
X115283250Y-99502476D01*
X115278743Y-99505632D01*
X115278741Y-99505633D01*
X115100209Y-99630642D01*
X115100206Y-99630644D01*
X115095698Y-99633801D01*
X114933801Y-99795698D01*
X114930644Y-99800206D01*
X114930642Y-99800209D01*
X114872057Y-99883878D01*
X114802476Y-99983250D01*
X114800153Y-99988232D01*
X114800150Y-99988237D01*
X114708037Y-100185775D01*
X114705714Y-100190757D01*
X114646455Y-100411913D01*
X114626500Y-100640000D01*
X114646455Y-100868087D01*
X114647879Y-100873400D01*
X114647879Y-100873402D01*
X114701690Y-101074224D01*
X114705714Y-101089243D01*
X114708036Y-101094224D01*
X114708037Y-101094225D01*
X114800150Y-101291763D01*
X114800153Y-101291768D01*
X114802476Y-101296750D01*
X114805632Y-101301257D01*
X114805633Y-101301259D01*
X114917824Y-101461484D01*
X114933801Y-101484302D01*
X115095698Y-101646199D01*
X115100206Y-101649356D01*
X115100209Y-101649358D01*
X115258007Y-101759849D01*
X115283250Y-101777524D01*
X115288232Y-101779847D01*
X115288237Y-101779850D01*
X115450916Y-101855708D01*
X115490757Y-101874286D01*
X115496065Y-101875708D01*
X115496067Y-101875709D01*
X115706598Y-101932121D01*
X115706600Y-101932121D01*
X115711913Y-101933545D01*
X115940000Y-101953500D01*
X116168087Y-101933545D01*
X116173400Y-101932121D01*
X116173402Y-101932121D01*
X116383933Y-101875709D01*
X116383935Y-101875708D01*
X116389243Y-101874286D01*
X116429084Y-101855708D01*
X116591763Y-101779850D01*
X116591768Y-101779847D01*
X116596750Y-101777524D01*
X116621993Y-101759849D01*
X116779791Y-101649358D01*
X116779794Y-101649356D01*
X116784302Y-101646199D01*
X116946199Y-101484302D01*
X116962177Y-101461484D01*
X117074367Y-101301259D01*
X117074368Y-101301257D01*
X117077524Y-101296750D01*
X117079847Y-101291768D01*
X117079850Y-101291763D01*
X117171963Y-101094225D01*
X117171964Y-101094224D01*
X117174286Y-101089243D01*
X117178311Y-101074224D01*
X117232121Y-100873402D01*
X117232121Y-100873400D01*
X117233545Y-100868087D01*
X117253500Y-100640000D01*
X117233545Y-100411913D01*
X117174286Y-100190757D01*
X117171963Y-100185775D01*
X117079850Y-99988237D01*
X117079847Y-99988232D01*
X117077524Y-99983250D01*
X117007943Y-99883878D01*
X116949358Y-99800209D01*
X116949356Y-99800206D01*
X116946199Y-99795698D01*
X116784302Y-99633801D01*
X116779794Y-99630644D01*
X116779791Y-99630642D01*
X116601259Y-99505633D01*
X116601257Y-99505632D01*
X116596750Y-99502476D01*
X116591768Y-99500153D01*
X116591763Y-99500150D01*
X116394225Y-99408037D01*
X116394224Y-99408036D01*
X116389243Y-99405714D01*
X116383935Y-99404292D01*
X116383933Y-99404291D01*
X116274446Y-99374954D01*
X116213823Y-99338002D01*
X116182802Y-99274141D01*
X116191230Y-99203647D01*
X116236433Y-99148900D01*
X116260817Y-99136718D01*
X116260651Y-99136332D01*
X116499226Y-99033833D01*
X116499229Y-99033831D01*
X116503529Y-99031984D01*
X116507509Y-99029521D01*
X116507513Y-99029519D01*
X116724342Y-98895341D01*
X116724346Y-98895338D01*
X116728315Y-98892882D01*
X116930072Y-98722082D01*
X117104366Y-98523337D01*
X117110799Y-98513337D01*
X117240938Y-98311013D01*
X117247370Y-98301013D01*
X117355942Y-98059993D01*
X117377471Y-97983658D01*
X117426426Y-97810077D01*
X117426427Y-97810074D01*
X117427696Y-97805573D01*
X117430770Y-97781410D01*
X117460658Y-97546472D01*
X117460658Y-97546466D01*
X117461056Y-97543341D01*
X117461321Y-97533250D01*
X117463238Y-97460000D01*
X117463500Y-97450000D01*
X117460031Y-97403313D01*
X118977111Y-97403313D01*
X118977335Y-97407979D01*
X118977335Y-97407984D01*
X118979834Y-97460000D01*
X118989794Y-97667354D01*
X119041365Y-97926620D01*
X119130692Y-98175415D01*
X119136065Y-98185415D01*
X119252451Y-98402020D01*
X119255811Y-98408274D01*
X119258606Y-98412017D01*
X119258608Y-98412020D01*
X119411183Y-98616343D01*
X119411188Y-98616349D01*
X119413975Y-98620081D01*
X119417284Y-98623361D01*
X119417289Y-98623367D01*
X119594957Y-98799491D01*
X119601709Y-98806184D01*
X119605471Y-98808942D01*
X119605474Y-98808945D01*
X119804225Y-98954675D01*
X119814889Y-98962494D01*
X119819032Y-98964674D01*
X119819034Y-98964675D01*
X120044681Y-99083394D01*
X120044686Y-99083396D01*
X120048831Y-99085577D01*
X120053254Y-99087122D01*
X120053255Y-99087122D01*
X120265345Y-99161187D01*
X120298396Y-99172729D01*
X120302989Y-99173601D01*
X120406340Y-99193223D01*
X120469535Y-99225581D01*
X120505203Y-99286967D01*
X120502022Y-99357892D01*
X120461001Y-99415838D01*
X120436091Y-99431205D01*
X120391014Y-99452225D01*
X120288237Y-99500150D01*
X120288232Y-99500153D01*
X120283250Y-99502476D01*
X120278743Y-99505632D01*
X120278741Y-99505633D01*
X120100209Y-99630642D01*
X120100206Y-99630644D01*
X120095698Y-99633801D01*
X119933801Y-99795698D01*
X119930644Y-99800206D01*
X119930642Y-99800209D01*
X119872057Y-99883878D01*
X119802476Y-99983250D01*
X119800153Y-99988232D01*
X119800150Y-99988237D01*
X119708037Y-100185775D01*
X119705714Y-100190757D01*
X119646455Y-100411913D01*
X119626500Y-100640000D01*
X119646455Y-100868087D01*
X119647879Y-100873400D01*
X119647879Y-100873402D01*
X119701690Y-101074224D01*
X119705714Y-101089243D01*
X119708036Y-101094224D01*
X119708037Y-101094225D01*
X119800150Y-101291763D01*
X119800153Y-101291768D01*
X119802476Y-101296750D01*
X119805632Y-101301257D01*
X119805633Y-101301259D01*
X119917824Y-101461484D01*
X119933801Y-101484302D01*
X120095698Y-101646199D01*
X120100206Y-101649356D01*
X120100209Y-101649358D01*
X120258007Y-101759849D01*
X120283250Y-101777524D01*
X120288232Y-101779847D01*
X120288237Y-101779850D01*
X120450916Y-101855708D01*
X120490757Y-101874286D01*
X120496065Y-101875708D01*
X120496067Y-101875709D01*
X120706598Y-101932121D01*
X120706600Y-101932121D01*
X120711913Y-101933545D01*
X120940000Y-101953500D01*
X121168087Y-101933545D01*
X121173400Y-101932121D01*
X121173402Y-101932121D01*
X121383933Y-101875709D01*
X121383935Y-101875708D01*
X121389243Y-101874286D01*
X121429084Y-101855708D01*
X121591763Y-101779850D01*
X121591768Y-101779847D01*
X121596750Y-101777524D01*
X121621993Y-101759849D01*
X121779791Y-101649358D01*
X121779794Y-101649356D01*
X121784302Y-101646199D01*
X121946199Y-101484302D01*
X121962177Y-101461484D01*
X122074367Y-101301259D01*
X122074368Y-101301257D01*
X122077524Y-101296750D01*
X122079847Y-101291768D01*
X122079850Y-101291763D01*
X122130469Y-101183209D01*
X122177386Y-101129924D01*
X122245664Y-101110463D01*
X122313623Y-101131005D01*
X122358859Y-101183210D01*
X122400149Y-101271758D01*
X122400152Y-101271764D01*
X122402477Y-101276749D01*
X122405633Y-101281256D01*
X122405634Y-101281258D01*
X122499885Y-101415862D01*
X122533802Y-101464301D01*
X122695699Y-101626198D01*
X122700207Y-101629355D01*
X122700210Y-101629357D01*
X122875536Y-101752121D01*
X122883251Y-101757523D01*
X122888233Y-101759846D01*
X122888238Y-101759849D01*
X123085776Y-101851962D01*
X123090758Y-101854285D01*
X123096066Y-101855707D01*
X123096068Y-101855708D01*
X123306599Y-101912120D01*
X123306601Y-101912120D01*
X123311914Y-101913544D01*
X123540001Y-101933499D01*
X123768088Y-101913544D01*
X123773401Y-101912120D01*
X123773403Y-101912120D01*
X123983934Y-101855708D01*
X123983936Y-101855707D01*
X123989244Y-101854285D01*
X123994226Y-101851962D01*
X124191764Y-101759849D01*
X124191769Y-101759846D01*
X124196751Y-101757523D01*
X124204466Y-101752121D01*
X124379792Y-101629357D01*
X124379795Y-101629355D01*
X124384303Y-101626198D01*
X124546200Y-101464301D01*
X124580118Y-101415862D01*
X124674368Y-101281258D01*
X124674369Y-101281256D01*
X124677525Y-101276749D01*
X124679848Y-101271767D01*
X124679851Y-101271762D01*
X124771964Y-101074224D01*
X124771965Y-101074223D01*
X124774287Y-101069242D01*
X124780433Y-101046307D01*
X124832122Y-100853401D01*
X124832122Y-100853399D01*
X124833546Y-100848086D01*
X124853501Y-100619999D01*
X129846501Y-100619999D01*
X129866456Y-100848086D01*
X129867880Y-100853399D01*
X129867880Y-100853401D01*
X129919570Y-101046307D01*
X129925715Y-101069242D01*
X129928037Y-101074223D01*
X129928038Y-101074224D01*
X130020151Y-101271762D01*
X130020154Y-101271767D01*
X130022477Y-101276749D01*
X130025633Y-101281256D01*
X130025634Y-101281258D01*
X130119885Y-101415862D01*
X130153802Y-101464301D01*
X130315699Y-101626198D01*
X130320207Y-101629355D01*
X130320210Y-101629357D01*
X130495536Y-101752121D01*
X130503251Y-101757523D01*
X130508233Y-101759846D01*
X130508238Y-101759849D01*
X130705776Y-101851962D01*
X130710758Y-101854285D01*
X130716066Y-101855707D01*
X130716068Y-101855708D01*
X130926599Y-101912120D01*
X130926601Y-101912120D01*
X130931914Y-101913544D01*
X131160001Y-101933499D01*
X131388088Y-101913544D01*
X131393401Y-101912120D01*
X131393403Y-101912120D01*
X131603934Y-101855708D01*
X131603936Y-101855707D01*
X131609244Y-101854285D01*
X131614226Y-101851962D01*
X131811764Y-101759849D01*
X131811769Y-101759846D01*
X131816751Y-101757523D01*
X131824466Y-101752121D01*
X131999792Y-101629357D01*
X131999795Y-101629355D01*
X132004303Y-101626198D01*
X132166200Y-101464301D01*
X132177784Y-101447757D01*
X132233241Y-101403430D01*
X132303860Y-101396121D01*
X132367220Y-101428152D01*
X132384206Y-101447755D01*
X132423801Y-101504302D01*
X132585698Y-101666199D01*
X132590206Y-101669356D01*
X132590209Y-101669358D01*
X132768741Y-101794367D01*
X132773250Y-101797524D01*
X132778232Y-101799847D01*
X132778237Y-101799850D01*
X132975775Y-101891963D01*
X132980757Y-101894286D01*
X132986065Y-101895708D01*
X132986067Y-101895709D01*
X133196598Y-101952121D01*
X133196600Y-101952121D01*
X133201913Y-101953545D01*
X133430000Y-101973500D01*
X133658087Y-101953545D01*
X133663400Y-101952121D01*
X133663402Y-101952121D01*
X133873933Y-101895709D01*
X133873935Y-101895708D01*
X133879243Y-101894286D01*
X133884225Y-101891963D01*
X134081763Y-101799850D01*
X134081768Y-101799847D01*
X134086750Y-101797524D01*
X134091259Y-101794367D01*
X134269791Y-101669358D01*
X134269794Y-101669356D01*
X134274302Y-101666199D01*
X134436199Y-101504302D01*
X134447475Y-101488199D01*
X134564367Y-101321259D01*
X134564368Y-101321257D01*
X134567524Y-101316750D01*
X134569847Y-101311768D01*
X134569850Y-101311763D01*
X134661963Y-101114225D01*
X134661964Y-101114224D01*
X134664286Y-101109243D01*
X134673670Y-101074224D01*
X134722121Y-100893402D01*
X134722121Y-100893400D01*
X134723545Y-100888087D01*
X134743500Y-100660000D01*
X139736500Y-100660000D01*
X139756455Y-100888087D01*
X139757879Y-100893400D01*
X139757879Y-100893402D01*
X139806331Y-101074224D01*
X139815714Y-101109243D01*
X139818036Y-101114224D01*
X139818037Y-101114225D01*
X139910150Y-101311763D01*
X139910153Y-101311768D01*
X139912476Y-101316750D01*
X139915632Y-101321257D01*
X139915633Y-101321259D01*
X140032526Y-101488199D01*
X140043801Y-101504302D01*
X140205698Y-101666199D01*
X140210206Y-101669356D01*
X140210209Y-101669358D01*
X140388741Y-101794367D01*
X140393250Y-101797524D01*
X140398232Y-101799847D01*
X140398237Y-101799850D01*
X140595775Y-101891963D01*
X140600757Y-101894286D01*
X140606065Y-101895708D01*
X140606067Y-101895709D01*
X140816598Y-101952121D01*
X140816600Y-101952121D01*
X140821913Y-101953545D01*
X141050000Y-101973500D01*
X141278087Y-101953545D01*
X141283400Y-101952121D01*
X141283402Y-101952121D01*
X141493933Y-101895709D01*
X141493935Y-101895708D01*
X141499243Y-101894286D01*
X141504225Y-101891963D01*
X141701763Y-101799850D01*
X141701768Y-101799847D01*
X141706750Y-101797524D01*
X141711259Y-101794367D01*
X141889791Y-101669358D01*
X141889794Y-101669356D01*
X141894302Y-101666199D01*
X141916205Y-101644296D01*
X141978517Y-101610270D01*
X142049332Y-101615335D01*
X142106168Y-101657882D01*
X142130979Y-101724402D01*
X142131300Y-101733391D01*
X142131300Y-103605200D01*
X142136527Y-103678279D01*
X142142843Y-103699789D01*
X142171511Y-103797423D01*
X142177704Y-103818516D01*
X142187655Y-103834000D01*
X142251851Y-103933891D01*
X142251853Y-103933894D01*
X142256723Y-103941471D01*
X142263533Y-103947372D01*
X142360369Y-104031282D01*
X142360372Y-104031284D01*
X142367181Y-104037184D01*
X142375379Y-104040928D01*
X142470528Y-104084381D01*
X142500130Y-104097900D01*
X142509045Y-104099182D01*
X142509046Y-104099182D01*
X142640352Y-104118061D01*
X142640359Y-104118062D01*
X142644800Y-104118700D01*
X144575200Y-104118700D01*
X144648279Y-104113473D01*
X144747358Y-104084381D01*
X144779870Y-104074835D01*
X144779872Y-104074834D01*
X144788516Y-104072296D01*
X144857071Y-104028238D01*
X144903891Y-103998149D01*
X144903894Y-103998147D01*
X144911471Y-103993277D01*
X144919908Y-103983540D01*
X145001282Y-103889631D01*
X145001284Y-103889628D01*
X145007184Y-103882819D01*
X145030231Y-103832353D01*
X145076724Y-103778697D01*
X145144845Y-103758695D01*
X145212966Y-103778697D01*
X145225329Y-103787750D01*
X145297876Y-103847979D01*
X145297882Y-103847983D01*
X145301853Y-103851280D01*
X145511075Y-103973540D01*
X145737456Y-104059986D01*
X145742522Y-104061017D01*
X145742523Y-104061017D01*
X145969837Y-104107265D01*
X145969841Y-104107265D01*
X145974916Y-104108298D01*
X145980092Y-104108488D01*
X145980094Y-104108488D01*
X146211914Y-104116989D01*
X146211918Y-104116989D01*
X146217078Y-104117178D01*
X146222198Y-104116522D01*
X146222200Y-104116522D01*
X146452311Y-104087044D01*
X146452312Y-104087044D01*
X146457439Y-104086387D01*
X146464126Y-104084381D01*
X146684590Y-104018238D01*
X146689543Y-104016752D01*
X146694182Y-104014479D01*
X146694188Y-104014477D01*
X146892871Y-103917143D01*
X146907158Y-103910144D01*
X146975663Y-103861280D01*
X147100226Y-103772430D01*
X147100231Y-103772426D01*
X147104438Y-103769425D01*
X147276087Y-103598375D01*
X147279103Y-103594178D01*
X147279110Y-103594170D01*
X147316441Y-103542218D01*
X147372435Y-103498570D01*
X147443139Y-103492124D01*
X147506103Y-103524927D01*
X147514000Y-103533246D01*
X147652024Y-103692585D01*
X147652027Y-103692588D01*
X147655408Y-103696491D01*
X147659377Y-103699786D01*
X147659380Y-103699789D01*
X147730333Y-103758695D01*
X147841853Y-103851280D01*
X148051075Y-103973540D01*
X148277456Y-104059986D01*
X148282522Y-104061017D01*
X148282523Y-104061017D01*
X148509837Y-104107265D01*
X148509841Y-104107265D01*
X148514916Y-104108298D01*
X148520092Y-104108488D01*
X148520094Y-104108488D01*
X148751914Y-104116989D01*
X148751918Y-104116989D01*
X148757078Y-104117178D01*
X148762198Y-104116522D01*
X148762200Y-104116522D01*
X148992311Y-104087044D01*
X148992312Y-104087044D01*
X148997439Y-104086387D01*
X149004126Y-104084381D01*
X149224590Y-104018238D01*
X149229543Y-104016752D01*
X149234182Y-104014479D01*
X149234188Y-104014477D01*
X149432871Y-103917143D01*
X149447158Y-103910144D01*
X149515663Y-103861280D01*
X149640226Y-103772430D01*
X149640231Y-103772426D01*
X149644438Y-103769425D01*
X149816087Y-103598375D01*
X149917393Y-103457393D01*
X149954475Y-103405787D01*
X149957493Y-103401587D01*
X149962306Y-103391850D01*
X150041922Y-103230757D01*
X150064860Y-103184346D01*
X150087862Y-103108638D01*
X150133801Y-102957438D01*
X150133802Y-102957432D01*
X150135305Y-102952486D01*
X150139904Y-102917547D01*
X150811800Y-102917547D01*
X150811800Y-103612943D01*
X150811961Y-103617450D01*
X150816540Y-103681469D01*
X150818926Y-103694691D01*
X150855619Y-103819658D01*
X150863033Y-103835892D01*
X150932226Y-103943560D01*
X150943912Y-103957047D01*
X151040640Y-104040862D01*
X151055648Y-104050507D01*
X151172075Y-104103677D01*
X151189188Y-104108702D01*
X151320354Y-104127561D01*
X151329295Y-104128200D01*
X152017885Y-104128200D01*
X152033124Y-104123725D01*
X152034329Y-104122335D01*
X152036000Y-104114652D01*
X152036001Y-102922115D01*
X152031526Y-102906876D01*
X152030136Y-102905671D01*
X152022453Y-102904000D01*
X150829915Y-102903999D01*
X150814676Y-102908474D01*
X150813471Y-102909864D01*
X150811800Y-102917547D01*
X150139904Y-102917547D01*
X150165181Y-102725555D01*
X150166498Y-102715555D01*
X150166498Y-102715551D01*
X150166935Y-102712234D01*
X150168358Y-102654012D01*
X150168618Y-102643365D01*
X150168618Y-102643361D01*
X150168700Y-102640000D01*
X150148844Y-102398490D01*
X150092322Y-102173466D01*
X150091069Y-102168478D01*
X150091069Y-102168477D01*
X150089810Y-102163466D01*
X150033121Y-102033091D01*
X149995243Y-101945976D01*
X149995241Y-101945973D01*
X149993183Y-101941239D01*
X149861559Y-101737778D01*
X149857568Y-101733391D01*
X149817444Y-101689295D01*
X150811800Y-101689295D01*
X150811800Y-102377885D01*
X150816275Y-102393124D01*
X150817665Y-102394329D01*
X150825348Y-102396000D01*
X152017885Y-102396001D01*
X152017895Y-102395998D01*
X152543999Y-102395998D01*
X152544000Y-102396004D01*
X152543999Y-104110085D01*
X152548474Y-104125324D01*
X152549864Y-104126529D01*
X152557547Y-104128200D01*
X153252943Y-104128200D01*
X153257450Y-104128039D01*
X153321469Y-104123460D01*
X153334691Y-104121074D01*
X153459658Y-104084381D01*
X153475892Y-104076967D01*
X153583560Y-104007774D01*
X153597047Y-103996088D01*
X153680862Y-103899360D01*
X153690509Y-103884348D01*
X153709838Y-103842024D01*
X153756331Y-103788369D01*
X153824452Y-103768367D01*
X153892573Y-103788370D01*
X153904936Y-103797423D01*
X153977875Y-103857978D01*
X153977880Y-103857981D01*
X153981853Y-103861280D01*
X154191075Y-103983540D01*
X154417456Y-104069986D01*
X154422522Y-104071017D01*
X154422523Y-104071017D01*
X154649837Y-104117265D01*
X154649841Y-104117265D01*
X154654916Y-104118298D01*
X154660092Y-104118488D01*
X154660094Y-104118488D01*
X154891914Y-104126989D01*
X154891918Y-104126989D01*
X154897078Y-104127178D01*
X154902198Y-104126522D01*
X154902200Y-104126522D01*
X155132311Y-104097044D01*
X155132312Y-104097044D01*
X155137439Y-104096387D01*
X155369543Y-104026752D01*
X155374182Y-104024479D01*
X155374188Y-104024477D01*
X155582520Y-103922416D01*
X155587158Y-103920144D01*
X155682748Y-103851960D01*
X155780226Y-103782430D01*
X155780231Y-103782426D01*
X155784438Y-103779425D01*
X155956087Y-103608375D01*
X155959103Y-103604178D01*
X155959110Y-103604170D01*
X155996441Y-103552218D01*
X156052435Y-103508570D01*
X156123139Y-103502124D01*
X156186103Y-103534927D01*
X156194000Y-103543246D01*
X156332024Y-103702585D01*
X156332027Y-103702588D01*
X156335408Y-103706491D01*
X156339377Y-103709786D01*
X156339380Y-103709789D01*
X156459929Y-103809870D01*
X156521853Y-103861280D01*
X156731075Y-103983540D01*
X156957456Y-104069986D01*
X156962522Y-104071017D01*
X156962523Y-104071017D01*
X157189837Y-104117265D01*
X157189841Y-104117265D01*
X157194916Y-104118298D01*
X157200092Y-104118488D01*
X157200094Y-104118488D01*
X157431914Y-104126989D01*
X157431918Y-104126989D01*
X157437078Y-104127178D01*
X157442198Y-104126522D01*
X157442200Y-104126522D01*
X157672311Y-104097044D01*
X157672312Y-104097044D01*
X157677439Y-104096387D01*
X157909543Y-104026752D01*
X157914182Y-104024479D01*
X157914188Y-104024477D01*
X158122520Y-103922416D01*
X158127158Y-103920144D01*
X158222748Y-103851960D01*
X158320226Y-103782430D01*
X158320231Y-103782426D01*
X158324438Y-103779425D01*
X158496087Y-103608375D01*
X158500652Y-103602023D01*
X158634475Y-103415787D01*
X158637493Y-103411587D01*
X158642306Y-103401850D01*
X158724240Y-103236067D01*
X158744860Y-103194346D01*
X158775897Y-103092192D01*
X158813801Y-102967438D01*
X158813802Y-102967432D01*
X158815305Y-102962486D01*
X158846935Y-102722234D01*
X158848107Y-102674257D01*
X158848618Y-102653365D01*
X158848618Y-102653361D01*
X158848700Y-102650000D01*
X158828844Y-102408490D01*
X158769810Y-102173466D01*
X158713121Y-102043091D01*
X158675243Y-101955976D01*
X158675241Y-101955973D01*
X158673183Y-101951239D01*
X158541559Y-101747778D01*
X158536565Y-101742289D01*
X158381949Y-101572369D01*
X158381947Y-101572368D01*
X158378471Y-101568547D01*
X158374420Y-101565348D01*
X158374416Y-101565344D01*
X158192355Y-101421561D01*
X158192351Y-101421559D01*
X158188300Y-101418359D01*
X158175986Y-101411561D01*
X158130307Y-101386345D01*
X157976153Y-101301248D01*
X157971284Y-101299524D01*
X157971280Y-101299522D01*
X157752603Y-101222084D01*
X157752599Y-101222083D01*
X157747728Y-101220358D01*
X157742638Y-101219451D01*
X157742633Y-101219450D01*
X157612794Y-101196323D01*
X157509158Y-101177863D01*
X157418181Y-101176751D01*
X157272021Y-101174965D01*
X157272019Y-101174965D01*
X157266851Y-101174902D01*
X157027314Y-101211556D01*
X156796981Y-101286841D01*
X156792393Y-101289229D01*
X156792389Y-101289231D01*
X156586625Y-101396345D01*
X156582036Y-101398734D01*
X156577903Y-101401837D01*
X156577900Y-101401839D01*
X156396592Y-101537969D01*
X156388252Y-101544231D01*
X156384680Y-101547969D01*
X156226312Y-101713692D01*
X156220834Y-101719424D01*
X156205237Y-101742289D01*
X156150325Y-101787291D01*
X156079800Y-101795462D01*
X156016053Y-101764207D01*
X156002969Y-101749958D01*
X156001559Y-101747778D01*
X155970543Y-101713692D01*
X155841949Y-101572369D01*
X155841947Y-101572368D01*
X155838471Y-101568547D01*
X155834420Y-101565348D01*
X155834416Y-101565344D01*
X155652355Y-101421561D01*
X155652351Y-101421559D01*
X155648300Y-101418359D01*
X155635986Y-101411561D01*
X155590307Y-101386345D01*
X155436153Y-101301248D01*
X155431284Y-101299524D01*
X155431280Y-101299522D01*
X155212603Y-101222084D01*
X155212599Y-101222083D01*
X155207728Y-101220358D01*
X155202638Y-101219451D01*
X155202633Y-101219450D01*
X155072794Y-101196323D01*
X154969158Y-101177863D01*
X154878181Y-101176751D01*
X154732021Y-101174965D01*
X154732019Y-101174965D01*
X154726851Y-101174902D01*
X154487314Y-101211556D01*
X154256981Y-101286841D01*
X154252393Y-101289229D01*
X154252389Y-101289231D01*
X154046625Y-101396345D01*
X154042036Y-101398734D01*
X154037903Y-101401837D01*
X154037900Y-101401839D01*
X154015898Y-101418359D01*
X153902808Y-101503270D01*
X153836324Y-101528175D01*
X153766929Y-101513183D01*
X153721158Y-101470629D01*
X153647774Y-101356440D01*
X153636088Y-101342953D01*
X153539360Y-101259138D01*
X153524352Y-101249493D01*
X153407925Y-101196323D01*
X153390812Y-101191298D01*
X153259646Y-101172439D01*
X153250705Y-101171800D01*
X152562115Y-101171800D01*
X152546876Y-101176275D01*
X152545671Y-101177665D01*
X152544000Y-101185348D01*
X152543999Y-102395998D01*
X152017895Y-102395998D01*
X152033124Y-102391526D01*
X152034329Y-102390136D01*
X152036000Y-102382453D01*
X152036001Y-101189915D01*
X152031526Y-101174676D01*
X152030136Y-101173471D01*
X152022453Y-101171800D01*
X151327057Y-101171800D01*
X151322550Y-101171961D01*
X151258531Y-101176540D01*
X151245309Y-101178926D01*
X151120342Y-101215619D01*
X151104108Y-101223033D01*
X150996440Y-101292226D01*
X150982953Y-101303912D01*
X150899138Y-101400640D01*
X150889493Y-101415648D01*
X150836323Y-101532075D01*
X150831298Y-101549188D01*
X150812439Y-101680354D01*
X150811800Y-101689295D01*
X149817444Y-101689295D01*
X149701949Y-101562369D01*
X149701947Y-101562368D01*
X149698471Y-101558547D01*
X149694420Y-101555348D01*
X149694416Y-101555344D01*
X149512355Y-101411561D01*
X149512351Y-101411559D01*
X149508300Y-101408359D01*
X149490865Y-101398734D01*
X149451963Y-101377259D01*
X149296153Y-101291248D01*
X149291284Y-101289524D01*
X149291280Y-101289522D01*
X149072603Y-101212084D01*
X149072599Y-101212083D01*
X149067728Y-101210358D01*
X149062638Y-101209451D01*
X149062633Y-101209450D01*
X148915317Y-101183210D01*
X148829158Y-101167863D01*
X148738181Y-101166751D01*
X148592021Y-101164965D01*
X148592019Y-101164965D01*
X148586851Y-101164902D01*
X148347314Y-101201556D01*
X148116981Y-101276841D01*
X148112393Y-101279229D01*
X148112389Y-101279231D01*
X147983918Y-101346109D01*
X147902036Y-101388734D01*
X147897903Y-101391837D01*
X147897900Y-101391839D01*
X147713714Y-101530130D01*
X147708252Y-101534231D01*
X147704680Y-101537969D01*
X147624091Y-101622301D01*
X147540834Y-101709424D01*
X147531101Y-101723692D01*
X147525237Y-101732289D01*
X147470325Y-101777291D01*
X147399800Y-101785462D01*
X147336053Y-101754207D01*
X147322969Y-101739958D01*
X147321559Y-101737778D01*
X147264253Y-101674800D01*
X147161949Y-101562369D01*
X147161947Y-101562368D01*
X147158471Y-101558547D01*
X147154420Y-101555348D01*
X147154416Y-101555344D01*
X146972355Y-101411561D01*
X146972351Y-101411559D01*
X146968300Y-101408359D01*
X146950865Y-101398734D01*
X146911963Y-101377259D01*
X146756153Y-101291248D01*
X146751284Y-101289524D01*
X146751280Y-101289522D01*
X146532603Y-101212084D01*
X146532599Y-101212083D01*
X146527728Y-101210358D01*
X146522638Y-101209451D01*
X146522633Y-101209450D01*
X146375317Y-101183210D01*
X146289158Y-101167863D01*
X146198181Y-101166751D01*
X146052021Y-101164965D01*
X146052019Y-101164965D01*
X146046851Y-101164902D01*
X145807314Y-101201556D01*
X145576981Y-101276841D01*
X145572393Y-101279229D01*
X145572389Y-101279231D01*
X145443918Y-101346109D01*
X145362036Y-101388734D01*
X145357903Y-101391837D01*
X145357900Y-101391839D01*
X145223206Y-101492970D01*
X145156721Y-101517876D01*
X145087325Y-101502884D01*
X145041555Y-101460331D01*
X144968149Y-101346109D01*
X144968147Y-101346106D01*
X144963277Y-101338529D01*
X144956467Y-101332628D01*
X144859631Y-101248718D01*
X144859628Y-101248716D01*
X144852819Y-101242816D01*
X144844621Y-101239072D01*
X144728064Y-101185842D01*
X144728063Y-101185842D01*
X144719870Y-101182100D01*
X144710955Y-101180818D01*
X144710954Y-101180818D01*
X144579648Y-101161939D01*
X144579641Y-101161938D01*
X144575200Y-101161300D01*
X142644800Y-101161300D01*
X142571721Y-101166527D01*
X142458355Y-101199814D01*
X142387358Y-101199814D01*
X142327632Y-101161430D01*
X142298139Y-101096849D01*
X142301150Y-101046307D01*
X142342121Y-100893402D01*
X142342121Y-100893400D01*
X142343545Y-100888087D01*
X142363500Y-100660000D01*
X142343545Y-100431913D01*
X142342121Y-100426598D01*
X142285709Y-100216067D01*
X142285708Y-100216065D01*
X142284286Y-100210757D01*
X142272637Y-100185775D01*
X142189850Y-100008237D01*
X142189847Y-100008232D01*
X142187524Y-100003250D01*
X142103939Y-99883878D01*
X142059358Y-99820209D01*
X142059355Y-99820205D01*
X142056199Y-99815698D01*
X141894302Y-99653801D01*
X141889794Y-99650644D01*
X141889791Y-99650642D01*
X141711259Y-99525633D01*
X141711257Y-99525632D01*
X141706750Y-99522476D01*
X141701768Y-99520153D01*
X141701763Y-99520150D01*
X141504225Y-99428037D01*
X141504224Y-99428036D01*
X141499243Y-99425714D01*
X141493935Y-99424292D01*
X141493933Y-99424291D01*
X141283402Y-99367879D01*
X141283400Y-99367879D01*
X141278087Y-99366455D01*
X141050000Y-99346500D01*
X140821913Y-99366455D01*
X140816600Y-99367879D01*
X140816598Y-99367879D01*
X140606067Y-99424291D01*
X140606065Y-99424292D01*
X140600757Y-99425714D01*
X140595776Y-99428036D01*
X140595775Y-99428037D01*
X140398237Y-99520150D01*
X140398232Y-99520153D01*
X140393250Y-99522476D01*
X140388743Y-99525632D01*
X140388741Y-99525633D01*
X140210209Y-99650642D01*
X140210206Y-99650644D01*
X140205698Y-99653801D01*
X140043801Y-99815698D01*
X140040645Y-99820205D01*
X140040642Y-99820209D01*
X139996061Y-99883878D01*
X139912476Y-100003250D01*
X139910153Y-100008232D01*
X139910150Y-100008237D01*
X139827363Y-100185775D01*
X139815714Y-100210757D01*
X139814292Y-100216065D01*
X139814291Y-100216067D01*
X139757879Y-100426598D01*
X139756455Y-100431913D01*
X139736500Y-100660000D01*
X134743500Y-100660000D01*
X134723545Y-100431913D01*
X134722121Y-100426598D01*
X134665709Y-100216067D01*
X134665708Y-100216065D01*
X134664286Y-100210757D01*
X134652637Y-100185775D01*
X134569850Y-100008237D01*
X134569847Y-100008232D01*
X134567524Y-100003250D01*
X134483939Y-99883878D01*
X134439358Y-99820209D01*
X134439355Y-99820205D01*
X134436199Y-99815698D01*
X134274302Y-99653801D01*
X134269794Y-99650644D01*
X134269791Y-99650642D01*
X134091259Y-99525633D01*
X134091257Y-99525632D01*
X134086750Y-99522476D01*
X134081768Y-99520153D01*
X134081763Y-99520150D01*
X133884225Y-99428037D01*
X133884224Y-99428036D01*
X133879243Y-99425714D01*
X133873935Y-99424292D01*
X133873933Y-99424291D01*
X133663402Y-99367879D01*
X133663400Y-99367879D01*
X133658087Y-99366455D01*
X133430000Y-99346500D01*
X133201913Y-99366455D01*
X133196600Y-99367879D01*
X133196598Y-99367879D01*
X132986067Y-99424291D01*
X132986065Y-99424292D01*
X132980757Y-99425714D01*
X132975776Y-99428036D01*
X132975775Y-99428037D01*
X132778237Y-99520150D01*
X132778232Y-99520153D01*
X132773250Y-99522476D01*
X132768743Y-99525632D01*
X132768741Y-99525633D01*
X132590209Y-99650642D01*
X132590206Y-99650644D01*
X132585698Y-99653801D01*
X132423801Y-99815698D01*
X132412218Y-99832241D01*
X132356760Y-99876569D01*
X132286141Y-99883878D01*
X132222781Y-99851847D01*
X132205792Y-99832241D01*
X132166200Y-99775697D01*
X132004303Y-99613800D01*
X131999795Y-99610643D01*
X131999792Y-99610641D01*
X131821260Y-99485632D01*
X131821258Y-99485631D01*
X131816751Y-99482475D01*
X131811769Y-99480152D01*
X131811764Y-99480149D01*
X131614226Y-99388036D01*
X131614225Y-99388035D01*
X131609244Y-99385713D01*
X131603936Y-99384291D01*
X131603934Y-99384290D01*
X131393403Y-99327878D01*
X131393401Y-99327878D01*
X131388088Y-99326454D01*
X131160001Y-99306499D01*
X130931914Y-99326454D01*
X130926601Y-99327878D01*
X130926599Y-99327878D01*
X130716068Y-99384290D01*
X130716066Y-99384291D01*
X130710758Y-99385713D01*
X130705777Y-99388035D01*
X130705776Y-99388036D01*
X130508238Y-99480149D01*
X130508233Y-99480152D01*
X130503251Y-99482475D01*
X130498744Y-99485631D01*
X130498742Y-99485632D01*
X130320210Y-99610641D01*
X130320207Y-99610643D01*
X130315699Y-99613800D01*
X130153802Y-99775697D01*
X130150645Y-99780205D01*
X130150643Y-99780208D01*
X130100481Y-99851847D01*
X130022477Y-99963249D01*
X130020154Y-99968231D01*
X130020151Y-99968236D01*
X129969532Y-100076789D01*
X129925715Y-100170756D01*
X129924293Y-100176064D01*
X129924292Y-100176066D01*
X129914997Y-100210757D01*
X129866456Y-100391912D01*
X129846501Y-100619999D01*
X124853501Y-100619999D01*
X124833546Y-100391912D01*
X124785005Y-100210757D01*
X124775710Y-100176066D01*
X124775709Y-100176064D01*
X124774287Y-100170756D01*
X124730470Y-100076789D01*
X124679851Y-99968236D01*
X124679848Y-99968231D01*
X124677525Y-99963249D01*
X124599521Y-99851847D01*
X124549359Y-99780208D01*
X124549357Y-99780205D01*
X124546200Y-99775697D01*
X124384303Y-99613800D01*
X124379795Y-99610643D01*
X124379792Y-99610641D01*
X124201260Y-99485632D01*
X124201258Y-99485631D01*
X124196751Y-99482475D01*
X124191769Y-99480152D01*
X124191764Y-99480149D01*
X123994226Y-99388036D01*
X123994225Y-99388035D01*
X123989244Y-99385713D01*
X123983936Y-99384291D01*
X123983934Y-99384290D01*
X123773403Y-99327878D01*
X123773401Y-99327878D01*
X123768088Y-99326454D01*
X123540001Y-99306499D01*
X123311914Y-99326454D01*
X123306601Y-99327878D01*
X123306599Y-99327878D01*
X123096068Y-99384290D01*
X123096066Y-99384291D01*
X123090758Y-99385713D01*
X123085777Y-99388035D01*
X123085776Y-99388036D01*
X122888238Y-99480149D01*
X122888233Y-99480152D01*
X122883251Y-99482475D01*
X122878744Y-99485631D01*
X122878742Y-99485632D01*
X122700210Y-99610641D01*
X122700207Y-99610643D01*
X122695699Y-99613800D01*
X122533802Y-99775697D01*
X122530645Y-99780205D01*
X122530643Y-99780208D01*
X122480481Y-99851847D01*
X122402477Y-99963249D01*
X122400154Y-99968231D01*
X122400151Y-99968236D01*
X122349532Y-100076790D01*
X122302615Y-100130075D01*
X122234337Y-100149536D01*
X122166378Y-100128994D01*
X122121142Y-100076789D01*
X122079852Y-99988241D01*
X122079849Y-99988235D01*
X122077524Y-99983250D01*
X122007943Y-99883878D01*
X121949358Y-99800209D01*
X121949356Y-99800206D01*
X121946199Y-99795698D01*
X121784302Y-99633801D01*
X121779794Y-99630644D01*
X121779791Y-99630642D01*
X121601259Y-99505633D01*
X121601257Y-99505632D01*
X121596750Y-99502476D01*
X121591768Y-99500153D01*
X121591763Y-99500150D01*
X121394225Y-99408037D01*
X121394224Y-99408036D01*
X121389243Y-99405714D01*
X121383935Y-99404292D01*
X121383933Y-99404291D01*
X121366529Y-99399628D01*
X121316278Y-99386163D01*
X121255658Y-99349213D01*
X121224636Y-99285352D01*
X121233064Y-99214858D01*
X121278267Y-99160111D01*
X121316809Y-99142610D01*
X121336124Y-99137524D01*
X121336126Y-99137523D01*
X121340651Y-99136332D01*
X121489988Y-99072172D01*
X121579226Y-99033833D01*
X121579229Y-99033831D01*
X121583529Y-99031984D01*
X121587509Y-99029521D01*
X121587513Y-99029519D01*
X121804342Y-98895341D01*
X121804346Y-98895338D01*
X121808315Y-98892882D01*
X122010072Y-98722082D01*
X122184366Y-98523337D01*
X122190799Y-98513337D01*
X122320938Y-98311013D01*
X122327370Y-98301013D01*
X122435942Y-98059993D01*
X122457471Y-97983658D01*
X122506426Y-97810077D01*
X122506427Y-97810074D01*
X122507696Y-97805573D01*
X122510770Y-97781410D01*
X122518894Y-97717547D01*
X124057000Y-97717547D01*
X124057000Y-98717743D01*
X124057161Y-98722250D01*
X124061740Y-98786269D01*
X124064126Y-98799491D01*
X124100819Y-98924458D01*
X124108233Y-98940692D01*
X124177426Y-99048360D01*
X124189112Y-99061847D01*
X124285840Y-99145662D01*
X124300848Y-99155307D01*
X124417275Y-99208477D01*
X124434388Y-99213502D01*
X124565554Y-99232361D01*
X124574495Y-99233000D01*
X125567885Y-99233000D01*
X125583124Y-99228525D01*
X125584329Y-99227135D01*
X125586000Y-99219452D01*
X125586000Y-99214885D01*
X126093999Y-99214885D01*
X126098474Y-99230124D01*
X126099864Y-99231329D01*
X126107547Y-99233000D01*
X127107743Y-99233000D01*
X127112250Y-99232839D01*
X127176269Y-99228260D01*
X127189491Y-99225874D01*
X127314458Y-99189181D01*
X127330692Y-99181767D01*
X127438360Y-99112574D01*
X127451847Y-99100888D01*
X127535662Y-99004160D01*
X127545307Y-98989152D01*
X127598477Y-98872725D01*
X127603502Y-98855612D01*
X127622361Y-98724446D01*
X127623000Y-98715503D01*
X127623000Y-97722115D01*
X127618525Y-97706876D01*
X127617135Y-97705671D01*
X127609452Y-97704000D01*
X126112115Y-97703999D01*
X126096876Y-97708474D01*
X126095671Y-97709864D01*
X126094000Y-97717547D01*
X126093999Y-99214885D01*
X125586000Y-99214885D01*
X125586001Y-97722115D01*
X125581526Y-97706876D01*
X125580136Y-97705671D01*
X125572453Y-97704000D01*
X124075115Y-97703999D01*
X124059876Y-97708474D01*
X124058671Y-97709864D01*
X124057000Y-97717547D01*
X122518894Y-97717547D01*
X122540658Y-97546472D01*
X122540658Y-97546466D01*
X122541056Y-97543341D01*
X122541321Y-97533250D01*
X122543238Y-97460000D01*
X122543500Y-97450000D01*
X122539375Y-97394496D01*
X122539288Y-97393313D01*
X133177111Y-97393313D01*
X133177335Y-97397979D01*
X133177335Y-97397984D01*
X133179834Y-97450000D01*
X133189794Y-97657354D01*
X133241365Y-97916620D01*
X133330692Y-98165415D01*
X133332908Y-98169539D01*
X133401262Y-98296752D01*
X133455811Y-98398274D01*
X133458606Y-98402017D01*
X133458608Y-98402020D01*
X133611183Y-98606343D01*
X133611188Y-98606349D01*
X133613975Y-98610081D01*
X133617284Y-98613361D01*
X133617289Y-98613367D01*
X133781619Y-98776269D01*
X133801709Y-98796184D01*
X133805471Y-98798942D01*
X133805474Y-98798945D01*
X134011115Y-98949727D01*
X134014889Y-98952494D01*
X134019032Y-98954674D01*
X134019034Y-98954675D01*
X134244681Y-99073394D01*
X134244686Y-99073396D01*
X134248831Y-99075577D01*
X134253254Y-99077122D01*
X134253255Y-99077122D01*
X134477143Y-99155307D01*
X134498396Y-99162729D01*
X134502989Y-99163601D01*
X134753513Y-99211164D01*
X134753516Y-99211164D01*
X134758102Y-99212035D01*
X134887895Y-99217135D01*
X135017575Y-99222231D01*
X135017581Y-99222231D01*
X135022243Y-99222414D01*
X135140596Y-99209452D01*
X135280364Y-99194145D01*
X135280369Y-99194144D01*
X135285017Y-99193635D01*
X135301935Y-99189181D01*
X135536131Y-99127522D01*
X135540651Y-99126332D01*
X135736519Y-99042181D01*
X135779226Y-99023833D01*
X135779229Y-99023831D01*
X135783529Y-99021984D01*
X135787509Y-99019521D01*
X135787513Y-99019519D01*
X136004342Y-98885341D01*
X136004346Y-98885338D01*
X136008315Y-98882882D01*
X136210072Y-98712082D01*
X136384366Y-98513337D01*
X136449536Y-98412020D01*
X136511978Y-98314943D01*
X136527370Y-98291013D01*
X136635942Y-98049993D01*
X136637212Y-98045490D01*
X136706426Y-97800077D01*
X136706427Y-97800074D01*
X136707696Y-97795573D01*
X136723424Y-97671942D01*
X136740658Y-97536472D01*
X136740658Y-97536466D01*
X136741056Y-97533341D01*
X136741177Y-97528741D01*
X136742428Y-97480961D01*
X136743500Y-97440000D01*
X136740031Y-97393313D01*
X138257111Y-97393313D01*
X138257335Y-97397979D01*
X138257335Y-97397984D01*
X138259834Y-97450000D01*
X138269794Y-97657354D01*
X138321365Y-97916620D01*
X138410692Y-98165415D01*
X138412908Y-98169539D01*
X138481262Y-98296752D01*
X138535811Y-98398274D01*
X138538606Y-98402017D01*
X138538608Y-98402020D01*
X138691183Y-98606343D01*
X138691188Y-98606349D01*
X138693975Y-98610081D01*
X138697284Y-98613361D01*
X138697289Y-98613367D01*
X138861619Y-98776269D01*
X138881709Y-98796184D01*
X138885471Y-98798942D01*
X138885474Y-98798945D01*
X139091115Y-98949727D01*
X139094889Y-98952494D01*
X139099032Y-98954674D01*
X139099034Y-98954675D01*
X139324681Y-99073394D01*
X139324686Y-99073396D01*
X139328831Y-99075577D01*
X139333254Y-99077122D01*
X139333255Y-99077122D01*
X139557143Y-99155307D01*
X139578396Y-99162729D01*
X139582989Y-99163601D01*
X139833513Y-99211164D01*
X139833516Y-99211164D01*
X139838102Y-99212035D01*
X139967895Y-99217135D01*
X140097575Y-99222231D01*
X140097581Y-99222231D01*
X140102243Y-99222414D01*
X140220596Y-99209452D01*
X140360364Y-99194145D01*
X140360369Y-99194144D01*
X140365017Y-99193635D01*
X140381935Y-99189181D01*
X140616131Y-99127522D01*
X140620651Y-99126332D01*
X140816519Y-99042181D01*
X140859226Y-99023833D01*
X140859229Y-99023831D01*
X140863529Y-99021984D01*
X140867509Y-99019521D01*
X140867513Y-99019519D01*
X141084342Y-98885341D01*
X141084346Y-98885338D01*
X141088315Y-98882882D01*
X141290072Y-98712082D01*
X141464366Y-98513337D01*
X141529536Y-98412020D01*
X141591978Y-98314943D01*
X141607370Y-98291013D01*
X141715942Y-98049993D01*
X141717212Y-98045490D01*
X141786426Y-97800077D01*
X141786427Y-97800074D01*
X141787696Y-97795573D01*
X141798894Y-97707547D01*
X143337000Y-97707547D01*
X143337000Y-98707743D01*
X143337161Y-98712250D01*
X143341740Y-98776269D01*
X143344126Y-98789491D01*
X143380819Y-98914458D01*
X143388233Y-98930692D01*
X143457426Y-99038360D01*
X143469112Y-99051847D01*
X143565840Y-99135662D01*
X143580848Y-99145307D01*
X143697275Y-99198477D01*
X143714388Y-99203502D01*
X143845554Y-99222361D01*
X143854495Y-99223000D01*
X144847885Y-99223000D01*
X144863124Y-99218525D01*
X144864329Y-99217135D01*
X144866000Y-99209452D01*
X144866000Y-99204885D01*
X145373999Y-99204885D01*
X145378474Y-99220124D01*
X145379864Y-99221329D01*
X145387547Y-99223000D01*
X146387743Y-99223000D01*
X146392250Y-99222839D01*
X146456269Y-99218260D01*
X146469491Y-99215874D01*
X146594458Y-99179181D01*
X146610692Y-99171767D01*
X146718360Y-99102574D01*
X146731847Y-99090888D01*
X146815662Y-98994160D01*
X146825307Y-98979152D01*
X146878477Y-98862725D01*
X146883502Y-98845612D01*
X146902361Y-98714446D01*
X146903000Y-98705503D01*
X146903000Y-97712115D01*
X146898525Y-97696876D01*
X146897135Y-97695671D01*
X146889452Y-97694000D01*
X145392115Y-97693999D01*
X145376876Y-97698474D01*
X145375671Y-97699864D01*
X145374000Y-97707547D01*
X145373999Y-99204885D01*
X144866000Y-99204885D01*
X144866001Y-97712115D01*
X144861526Y-97696876D01*
X144860136Y-97695671D01*
X144852453Y-97694000D01*
X143355115Y-97693999D01*
X143339876Y-97698474D01*
X143338671Y-97699864D01*
X143337000Y-97707547D01*
X141798894Y-97707547D01*
X141803424Y-97671942D01*
X141820658Y-97536472D01*
X141820658Y-97536466D01*
X141821056Y-97533341D01*
X141821177Y-97528741D01*
X141822428Y-97480961D01*
X141823500Y-97440000D01*
X141819785Y-97390000D01*
X147256500Y-97390000D01*
X147256500Y-98990000D01*
X147261727Y-99063079D01*
X147279306Y-99122949D01*
X147299712Y-99192444D01*
X147302904Y-99203316D01*
X147315451Y-99222839D01*
X147377051Y-99318691D01*
X147377053Y-99318694D01*
X147381923Y-99326271D01*
X147388733Y-99332172D01*
X147485569Y-99416082D01*
X147485572Y-99416084D01*
X147492381Y-99421984D01*
X147625330Y-99482700D01*
X147634245Y-99483982D01*
X147634246Y-99483982D01*
X147765552Y-99502861D01*
X147765559Y-99502862D01*
X147770000Y-99503500D01*
X149370000Y-99503500D01*
X149443079Y-99498273D01*
X149521165Y-99475345D01*
X149574670Y-99459635D01*
X149574672Y-99459634D01*
X149583316Y-99457096D01*
X149647135Y-99416082D01*
X149698691Y-99382949D01*
X149698694Y-99382947D01*
X149706271Y-99378077D01*
X149733672Y-99346455D01*
X149796082Y-99274431D01*
X149796084Y-99274428D01*
X149801984Y-99267619D01*
X149816254Y-99236373D01*
X149858958Y-99142864D01*
X149858958Y-99142863D01*
X149862700Y-99134670D01*
X149864773Y-99120252D01*
X149894266Y-99055670D01*
X149953992Y-99017286D01*
X150024988Y-99017286D01*
X150078586Y-99049087D01*
X150225698Y-99196199D01*
X150230206Y-99199356D01*
X150230209Y-99199358D01*
X150337011Y-99274141D01*
X150413250Y-99327524D01*
X150418232Y-99329847D01*
X150418237Y-99329850D01*
X150602640Y-99415838D01*
X150620757Y-99424286D01*
X150626065Y-99425708D01*
X150626067Y-99425709D01*
X150836598Y-99482121D01*
X150836600Y-99482121D01*
X150841913Y-99483545D01*
X151070000Y-99503500D01*
X151298087Y-99483545D01*
X151303400Y-99482121D01*
X151303402Y-99482121D01*
X151513933Y-99425709D01*
X151513935Y-99425708D01*
X151519243Y-99424286D01*
X151537360Y-99415838D01*
X151721763Y-99329850D01*
X151721768Y-99329847D01*
X151726750Y-99327524D01*
X151802989Y-99274141D01*
X151909791Y-99199358D01*
X151909794Y-99199356D01*
X151914302Y-99196199D01*
X152076199Y-99034302D01*
X152083530Y-99023833D01*
X152204367Y-98851259D01*
X152204368Y-98851257D01*
X152207524Y-98846750D01*
X152209847Y-98841768D01*
X152209850Y-98841763D01*
X152301963Y-98644225D01*
X152301964Y-98644224D01*
X152304286Y-98639243D01*
X152305861Y-98633367D01*
X152362121Y-98423402D01*
X152362121Y-98423400D01*
X152363545Y-98418087D01*
X152383500Y-98190000D01*
X152370857Y-98045490D01*
X152365448Y-97983658D01*
X152372813Y-97947012D01*
X152358813Y-97932503D01*
X152348754Y-97906713D01*
X152321654Y-97805573D01*
X152304286Y-97740757D01*
X152290930Y-97712115D01*
X152209850Y-97538237D01*
X152209847Y-97538232D01*
X152207524Y-97533250D01*
X152147027Y-97446851D01*
X152123544Y-97413313D01*
X152547111Y-97413313D01*
X152547335Y-97417979D01*
X152547335Y-97417984D01*
X152549505Y-97463160D01*
X152559794Y-97677354D01*
X152588183Y-97820077D01*
X152594040Y-97849520D01*
X152589323Y-97902233D01*
X152608311Y-97926777D01*
X152611029Y-97934933D01*
X152611365Y-97936620D01*
X152700692Y-98185415D01*
X152738382Y-98255559D01*
X152822451Y-98412020D01*
X152825811Y-98418274D01*
X152828606Y-98422017D01*
X152828608Y-98422020D01*
X152981183Y-98626343D01*
X152981188Y-98626349D01*
X152983975Y-98630081D01*
X152987284Y-98633361D01*
X152987289Y-98633367D01*
X153165029Y-98809562D01*
X153171709Y-98816184D01*
X153175471Y-98818942D01*
X153175474Y-98818945D01*
X153374225Y-98964675D01*
X153384889Y-98972494D01*
X153389032Y-98974674D01*
X153389034Y-98974675D01*
X153614681Y-99093394D01*
X153614686Y-99093396D01*
X153618831Y-99095577D01*
X153623254Y-99097122D01*
X153623255Y-99097122D01*
X153837006Y-99171767D01*
X153868396Y-99182729D01*
X153872989Y-99183601D01*
X154123513Y-99231164D01*
X154123516Y-99231164D01*
X154128102Y-99232035D01*
X154260172Y-99237224D01*
X154387575Y-99242231D01*
X154387581Y-99242231D01*
X154392243Y-99242414D01*
X154504460Y-99230124D01*
X154650364Y-99214145D01*
X154650369Y-99214144D01*
X154655017Y-99213635D01*
X154664403Y-99211164D01*
X154906131Y-99147522D01*
X154910651Y-99146332D01*
X155089339Y-99069562D01*
X155149226Y-99043833D01*
X155149229Y-99043831D01*
X155153529Y-99041984D01*
X155157509Y-99039521D01*
X155157513Y-99039519D01*
X155374342Y-98905341D01*
X155374346Y-98905338D01*
X155378315Y-98902882D01*
X155580072Y-98732082D01*
X155754366Y-98533337D01*
X155760799Y-98523337D01*
X155894842Y-98314943D01*
X155897370Y-98311013D01*
X156005942Y-98069993D01*
X156046333Y-97926777D01*
X156076426Y-97820077D01*
X156076427Y-97820074D01*
X156077696Y-97815573D01*
X156089585Y-97722115D01*
X156110658Y-97556472D01*
X156110658Y-97556466D01*
X156111056Y-97553341D01*
X156111401Y-97540184D01*
X156113417Y-97463160D01*
X156113500Y-97460000D01*
X156110031Y-97413313D01*
X157627111Y-97413313D01*
X157627335Y-97417979D01*
X157627335Y-97417984D01*
X157629505Y-97463160D01*
X157639794Y-97677354D01*
X157691365Y-97936620D01*
X157780692Y-98185415D01*
X157818382Y-98255559D01*
X157902451Y-98412020D01*
X157905811Y-98418274D01*
X157908606Y-98422017D01*
X157908608Y-98422020D01*
X158061183Y-98626343D01*
X158061188Y-98626349D01*
X158063975Y-98630081D01*
X158067284Y-98633361D01*
X158067289Y-98633367D01*
X158245029Y-98809562D01*
X158251709Y-98816184D01*
X158255471Y-98818942D01*
X158255474Y-98818945D01*
X158454225Y-98964675D01*
X158464889Y-98972494D01*
X158469032Y-98974674D01*
X158469034Y-98974675D01*
X158694681Y-99093394D01*
X158694686Y-99093396D01*
X158698831Y-99095577D01*
X158703254Y-99097122D01*
X158703255Y-99097122D01*
X158917006Y-99171767D01*
X158948396Y-99182729D01*
X158952989Y-99183601D01*
X159203513Y-99231164D01*
X159203516Y-99231164D01*
X159208102Y-99232035D01*
X159340172Y-99237224D01*
X159467575Y-99242231D01*
X159467581Y-99242231D01*
X159472243Y-99242414D01*
X159584460Y-99230124D01*
X159730364Y-99214145D01*
X159730369Y-99214144D01*
X159735017Y-99213635D01*
X159744403Y-99211164D01*
X159986131Y-99147522D01*
X159990651Y-99146332D01*
X160169339Y-99069562D01*
X160229226Y-99043833D01*
X160229229Y-99043831D01*
X160233529Y-99041984D01*
X160237509Y-99039521D01*
X160237513Y-99039519D01*
X160454342Y-98905341D01*
X160454346Y-98905338D01*
X160458315Y-98902882D01*
X160660072Y-98732082D01*
X160834366Y-98533337D01*
X160840799Y-98523337D01*
X160974842Y-98314943D01*
X160977370Y-98311013D01*
X161085942Y-98069993D01*
X161126333Y-97926777D01*
X161156426Y-97820077D01*
X161156427Y-97820074D01*
X161157696Y-97815573D01*
X161169585Y-97722115D01*
X161190658Y-97556472D01*
X161190658Y-97556466D01*
X161191056Y-97553341D01*
X161191401Y-97540184D01*
X161193417Y-97463160D01*
X161193500Y-97460000D01*
X161189635Y-97407984D01*
X161174256Y-97201034D01*
X161174255Y-97201030D01*
X161173910Y-97196382D01*
X161115570Y-96938555D01*
X161113877Y-96934201D01*
X161021454Y-96696536D01*
X161021453Y-96696534D01*
X161019761Y-96692183D01*
X161016534Y-96686536D01*
X160890908Y-96466737D01*
X160888589Y-96462679D01*
X160806762Y-96358882D01*
X160727826Y-96258753D01*
X160727823Y-96258750D01*
X160724934Y-96255085D01*
X160532393Y-96073960D01*
X160377599Y-95966576D01*
X160319037Y-95925949D01*
X160319034Y-95925947D01*
X160315195Y-95923284D01*
X160311005Y-95921218D01*
X160311002Y-95921216D01*
X160082299Y-95808433D01*
X160082296Y-95808432D01*
X160078111Y-95806368D01*
X160055444Y-95799112D01*
X159854200Y-95734693D01*
X159826350Y-95725778D01*
X159648306Y-95696782D01*
X159570054Y-95684038D01*
X159570053Y-95684038D01*
X159565442Y-95683287D01*
X159430684Y-95681523D01*
X159305797Y-95679888D01*
X159305794Y-95679888D01*
X159301120Y-95679827D01*
X159039189Y-95715474D01*
X159034703Y-95716782D01*
X159034701Y-95716782D01*
X159003837Y-95725778D01*
X158785405Y-95789445D01*
X158781152Y-95791405D01*
X158781151Y-95791406D01*
X158764436Y-95799112D01*
X158545342Y-95900116D01*
X158541437Y-95902676D01*
X158541432Y-95902679D01*
X158328187Y-96042488D01*
X158328182Y-96042492D01*
X158324274Y-96045054D01*
X158303092Y-96063960D01*
X158134229Y-96214676D01*
X158127057Y-96221077D01*
X157958025Y-96424316D01*
X157820890Y-96650308D01*
X157819081Y-96654622D01*
X157819080Y-96654624D01*
X157720960Y-96888615D01*
X157718665Y-96894087D01*
X157653595Y-97150298D01*
X157653127Y-97154949D01*
X157653126Y-97154953D01*
X157644851Y-97237136D01*
X157627111Y-97413313D01*
X156110031Y-97413313D01*
X156109635Y-97407984D01*
X156094256Y-97201034D01*
X156094255Y-97201030D01*
X156093910Y-97196382D01*
X156035570Y-96938555D01*
X156033877Y-96934201D01*
X155941454Y-96696536D01*
X155941453Y-96696534D01*
X155939761Y-96692183D01*
X155936534Y-96686536D01*
X155810908Y-96466737D01*
X155808589Y-96462679D01*
X155726762Y-96358882D01*
X155647826Y-96258753D01*
X155647823Y-96258750D01*
X155644934Y-96255085D01*
X155452393Y-96073960D01*
X155297599Y-95966576D01*
X155239037Y-95925949D01*
X155239034Y-95925947D01*
X155235195Y-95923284D01*
X155231005Y-95921218D01*
X155231002Y-95921216D01*
X155002299Y-95808433D01*
X155002296Y-95808432D01*
X154998111Y-95806368D01*
X154975444Y-95799112D01*
X154774200Y-95734693D01*
X154746350Y-95725778D01*
X154568306Y-95696782D01*
X154490054Y-95684038D01*
X154490053Y-95684038D01*
X154485442Y-95683287D01*
X154350684Y-95681523D01*
X154225797Y-95679888D01*
X154225794Y-95679888D01*
X154221120Y-95679827D01*
X153959189Y-95715474D01*
X153954703Y-95716782D01*
X153954701Y-95716782D01*
X153923837Y-95725778D01*
X153705405Y-95789445D01*
X153701152Y-95791405D01*
X153701151Y-95791406D01*
X153684436Y-95799112D01*
X153465342Y-95900116D01*
X153461437Y-95902676D01*
X153461432Y-95902679D01*
X153248187Y-96042488D01*
X153248182Y-96042492D01*
X153244274Y-96045054D01*
X153223092Y-96063960D01*
X153054229Y-96214676D01*
X153047057Y-96221077D01*
X152878025Y-96424316D01*
X152740890Y-96650308D01*
X152739081Y-96654622D01*
X152739080Y-96654624D01*
X152640960Y-96888615D01*
X152638665Y-96894087D01*
X152573595Y-97150298D01*
X152573127Y-97154949D01*
X152573126Y-97154953D01*
X152564851Y-97237136D01*
X152547111Y-97413313D01*
X152123544Y-97413313D01*
X152079358Y-97350209D01*
X152079356Y-97350206D01*
X152076199Y-97345698D01*
X151914302Y-97183801D01*
X151909794Y-97180644D01*
X151909791Y-97180642D01*
X151731259Y-97055633D01*
X151731257Y-97055632D01*
X151726750Y-97052476D01*
X151721768Y-97050153D01*
X151721763Y-97050150D01*
X151524225Y-96958037D01*
X151524224Y-96958036D01*
X151519243Y-96955714D01*
X151513935Y-96954292D01*
X151513933Y-96954291D01*
X151303402Y-96897879D01*
X151303400Y-96897879D01*
X151298087Y-96896455D01*
X151070000Y-96876500D01*
X150841913Y-96896455D01*
X150836600Y-96897879D01*
X150836598Y-96897879D01*
X150626067Y-96954291D01*
X150626065Y-96954292D01*
X150620757Y-96955714D01*
X150615776Y-96958036D01*
X150615775Y-96958037D01*
X150418237Y-97050150D01*
X150418232Y-97050153D01*
X150413250Y-97052476D01*
X150408743Y-97055632D01*
X150408741Y-97055633D01*
X150230209Y-97180642D01*
X150230206Y-97180644D01*
X150225698Y-97183801D01*
X150077078Y-97332421D01*
X150014766Y-97366447D01*
X149943951Y-97361382D01*
X149887115Y-97318835D01*
X149867087Y-97278824D01*
X149839635Y-97185330D01*
X149839634Y-97185328D01*
X149837096Y-97176684D01*
X149770665Y-97073316D01*
X149762949Y-97061309D01*
X149762947Y-97061306D01*
X149758077Y-97053729D01*
X149710917Y-97012864D01*
X149654431Y-96963918D01*
X149654428Y-96963916D01*
X149647619Y-96958016D01*
X149581401Y-96927775D01*
X149522864Y-96901042D01*
X149522863Y-96901042D01*
X149514670Y-96897300D01*
X149505755Y-96896018D01*
X149505754Y-96896018D01*
X149374448Y-96877139D01*
X149374441Y-96877138D01*
X149370000Y-96876500D01*
X147770000Y-96876500D01*
X147696921Y-96881727D01*
X147631140Y-96901042D01*
X147565330Y-96920365D01*
X147565328Y-96920366D01*
X147556684Y-96922904D01*
X147549105Y-96927775D01*
X147441309Y-96997051D01*
X147441306Y-96997053D01*
X147433729Y-97001923D01*
X147427828Y-97008733D01*
X147343918Y-97105569D01*
X147343916Y-97105572D01*
X147338016Y-97112381D01*
X147334272Y-97120579D01*
X147299705Y-97196271D01*
X147277300Y-97245330D01*
X147276018Y-97254245D01*
X147276018Y-97254246D01*
X147257139Y-97385552D01*
X147257138Y-97385559D01*
X147256500Y-97390000D01*
X141819785Y-97390000D01*
X141818511Y-97372861D01*
X141804256Y-97181034D01*
X141804255Y-97181030D01*
X141803910Y-97176382D01*
X141745570Y-96918555D01*
X141737530Y-96897879D01*
X141651454Y-96676536D01*
X141651453Y-96676534D01*
X141649761Y-96672183D01*
X141637259Y-96650308D01*
X141527923Y-96459011D01*
X141518589Y-96442679D01*
X141400835Y-96293310D01*
X141357826Y-96238753D01*
X141357823Y-96238750D01*
X141354934Y-96235085D01*
X141290526Y-96174495D01*
X143337000Y-96174495D01*
X143337000Y-97167885D01*
X143341475Y-97183124D01*
X143342865Y-97184329D01*
X143350548Y-97186000D01*
X144847885Y-97186001D01*
X144863124Y-97181526D01*
X144864329Y-97180136D01*
X144866000Y-97172453D01*
X144866000Y-97167885D01*
X145373999Y-97167885D01*
X145378474Y-97183124D01*
X145379864Y-97184329D01*
X145387547Y-97186000D01*
X146884885Y-97186001D01*
X146900124Y-97181526D01*
X146901329Y-97180136D01*
X146903000Y-97172453D01*
X146903000Y-96172257D01*
X146902839Y-96167750D01*
X146898260Y-96103731D01*
X146895874Y-96090509D01*
X146859181Y-95965542D01*
X146851767Y-95949308D01*
X146782574Y-95841640D01*
X146770888Y-95828153D01*
X146674160Y-95744338D01*
X146659152Y-95734693D01*
X146542725Y-95681523D01*
X146525612Y-95676498D01*
X146394446Y-95657639D01*
X146385505Y-95657000D01*
X145392115Y-95657000D01*
X145376876Y-95661475D01*
X145375671Y-95662865D01*
X145374000Y-95670548D01*
X145373999Y-97167885D01*
X144866000Y-97167885D01*
X144866001Y-95675115D01*
X144861526Y-95659876D01*
X144860136Y-95658671D01*
X144852453Y-95657000D01*
X143852257Y-95657000D01*
X143847750Y-95657161D01*
X143783731Y-95661740D01*
X143770509Y-95664126D01*
X143645542Y-95700819D01*
X143629308Y-95708233D01*
X143521640Y-95777426D01*
X143508153Y-95789112D01*
X143424338Y-95885840D01*
X143414693Y-95900848D01*
X143361523Y-96017275D01*
X143356498Y-96034388D01*
X143337639Y-96165554D01*
X143337000Y-96174495D01*
X141290526Y-96174495D01*
X141162393Y-96053960D01*
X141007599Y-95946576D01*
X140949037Y-95905949D01*
X140949034Y-95905947D01*
X140945195Y-95903284D01*
X140941005Y-95901218D01*
X140941002Y-95901216D01*
X140712299Y-95788433D01*
X140712296Y-95788432D01*
X140708111Y-95786368D01*
X140682389Y-95778134D01*
X140490726Y-95716782D01*
X140456350Y-95705778D01*
X140261997Y-95674126D01*
X140200054Y-95664038D01*
X140200053Y-95664038D01*
X140195442Y-95663287D01*
X140063281Y-95661557D01*
X139935797Y-95659888D01*
X139935794Y-95659888D01*
X139931120Y-95659827D01*
X139669189Y-95695474D01*
X139664703Y-95696782D01*
X139664701Y-95696782D01*
X139616542Y-95710819D01*
X139415405Y-95769445D01*
X139175342Y-95880116D01*
X139171437Y-95882676D01*
X139171432Y-95882679D01*
X138958187Y-96022488D01*
X138958182Y-96022492D01*
X138954274Y-96025054D01*
X138880938Y-96090509D01*
X138769468Y-96190000D01*
X138757057Y-96201077D01*
X138588025Y-96404316D01*
X138450890Y-96630308D01*
X138449081Y-96634622D01*
X138449080Y-96634624D01*
X138353629Y-96862250D01*
X138348665Y-96874087D01*
X138283595Y-97130298D01*
X138283127Y-97134949D01*
X138283126Y-97134953D01*
X138277986Y-97186000D01*
X138257111Y-97393313D01*
X136740031Y-97393313D01*
X136738511Y-97372861D01*
X136724256Y-97181034D01*
X136724255Y-97181030D01*
X136723910Y-97176382D01*
X136665570Y-96918555D01*
X136657530Y-96897879D01*
X136571454Y-96676536D01*
X136571453Y-96676534D01*
X136569761Y-96672183D01*
X136557259Y-96650308D01*
X136447923Y-96459011D01*
X136438589Y-96442679D01*
X136320835Y-96293310D01*
X136277826Y-96238753D01*
X136277823Y-96238750D01*
X136274934Y-96235085D01*
X136082393Y-96053960D01*
X135927599Y-95946576D01*
X135869037Y-95905949D01*
X135869034Y-95905947D01*
X135865195Y-95903284D01*
X135861005Y-95901218D01*
X135861002Y-95901216D01*
X135632299Y-95788433D01*
X135632296Y-95788432D01*
X135628111Y-95786368D01*
X135602389Y-95778134D01*
X135410726Y-95716782D01*
X135376350Y-95705778D01*
X135181997Y-95674126D01*
X135120054Y-95664038D01*
X135120053Y-95664038D01*
X135115442Y-95663287D01*
X134983281Y-95661557D01*
X134855797Y-95659888D01*
X134855794Y-95659888D01*
X134851120Y-95659827D01*
X134589189Y-95695474D01*
X134584703Y-95696782D01*
X134584701Y-95696782D01*
X134536542Y-95710819D01*
X134335405Y-95769445D01*
X134095342Y-95880116D01*
X134091437Y-95882676D01*
X134091432Y-95882679D01*
X133878187Y-96022488D01*
X133878182Y-96022492D01*
X133874274Y-96025054D01*
X133800938Y-96090509D01*
X133689468Y-96190000D01*
X133677057Y-96201077D01*
X133508025Y-96404316D01*
X133370890Y-96630308D01*
X133369081Y-96634622D01*
X133369080Y-96634624D01*
X133273629Y-96862250D01*
X133268665Y-96874087D01*
X133203595Y-97130298D01*
X133203127Y-97134949D01*
X133203126Y-97134953D01*
X133197986Y-97186000D01*
X133177111Y-97393313D01*
X122539288Y-97393313D01*
X122524256Y-97191034D01*
X122524255Y-97191030D01*
X122523910Y-97186382D01*
X122465570Y-96928555D01*
X122463877Y-96924201D01*
X122371454Y-96686536D01*
X122371453Y-96686534D01*
X122369761Y-96682183D01*
X122366534Y-96676536D01*
X122273669Y-96514057D01*
X122238589Y-96452679D01*
X122085709Y-96258753D01*
X122077826Y-96248753D01*
X122077823Y-96248750D01*
X122074934Y-96245085D01*
X122010526Y-96184495D01*
X124057000Y-96184495D01*
X124057000Y-97177885D01*
X124061475Y-97193124D01*
X124062865Y-97194329D01*
X124070548Y-97196000D01*
X125567885Y-97196001D01*
X125583124Y-97191526D01*
X125584329Y-97190136D01*
X125586000Y-97182453D01*
X125586000Y-97177885D01*
X126093999Y-97177885D01*
X126098474Y-97193124D01*
X126099864Y-97194329D01*
X126107547Y-97196000D01*
X127604885Y-97196001D01*
X127620124Y-97191526D01*
X127621329Y-97190136D01*
X127623000Y-97182453D01*
X127623000Y-96182257D01*
X127622839Y-96177750D01*
X127618260Y-96113731D01*
X127615874Y-96100509D01*
X127579181Y-95975542D01*
X127571767Y-95959308D01*
X127502574Y-95851640D01*
X127490888Y-95838153D01*
X127394160Y-95754338D01*
X127379152Y-95744693D01*
X127262725Y-95691523D01*
X127245612Y-95686498D01*
X127114446Y-95667639D01*
X127105505Y-95667000D01*
X126112115Y-95667000D01*
X126096876Y-95671475D01*
X126095671Y-95672865D01*
X126094000Y-95680548D01*
X126093999Y-97177885D01*
X125586000Y-97177885D01*
X125586001Y-95685115D01*
X125581526Y-95669876D01*
X125580136Y-95668671D01*
X125572453Y-95667000D01*
X124572257Y-95667000D01*
X124567750Y-95667161D01*
X124503731Y-95671740D01*
X124490509Y-95674126D01*
X124365542Y-95710819D01*
X124349308Y-95718233D01*
X124241640Y-95787426D01*
X124228153Y-95799112D01*
X124144338Y-95895840D01*
X124134693Y-95910848D01*
X124081523Y-96027275D01*
X124076498Y-96044388D01*
X124057639Y-96175554D01*
X124057000Y-96184495D01*
X122010526Y-96184495D01*
X121882393Y-96063960D01*
X121717123Y-95949308D01*
X121669037Y-95915949D01*
X121669034Y-95915947D01*
X121665195Y-95913284D01*
X121661005Y-95911218D01*
X121661002Y-95911216D01*
X121432299Y-95798433D01*
X121432296Y-95798432D01*
X121428111Y-95796368D01*
X121405444Y-95789112D01*
X121212035Y-95727201D01*
X121176350Y-95715778D01*
X121025495Y-95691210D01*
X120920054Y-95674038D01*
X120920053Y-95674038D01*
X120915442Y-95673287D01*
X120783281Y-95671557D01*
X120655797Y-95669888D01*
X120655794Y-95669888D01*
X120651120Y-95669827D01*
X120389189Y-95705474D01*
X120384703Y-95706782D01*
X120384701Y-95706782D01*
X120338100Y-95720365D01*
X120135405Y-95779445D01*
X120131152Y-95781405D01*
X120131151Y-95781406D01*
X120114436Y-95789112D01*
X119895342Y-95890116D01*
X119891437Y-95892676D01*
X119891432Y-95892679D01*
X119678187Y-96032488D01*
X119678182Y-96032492D01*
X119674274Y-96035054D01*
X119670782Y-96038171D01*
X119484229Y-96204676D01*
X119477057Y-96211077D01*
X119308025Y-96414316D01*
X119170890Y-96640308D01*
X119169081Y-96644622D01*
X119169080Y-96644624D01*
X119070960Y-96878615D01*
X119068665Y-96884087D01*
X119003595Y-97140298D01*
X119003127Y-97144949D01*
X119003126Y-97144953D01*
X118998486Y-97191034D01*
X118977111Y-97403313D01*
X117460031Y-97403313D01*
X117459375Y-97394496D01*
X117444256Y-97191034D01*
X117444255Y-97191030D01*
X117443910Y-97186382D01*
X117385570Y-96928555D01*
X117383877Y-96924201D01*
X117291454Y-96686536D01*
X117291453Y-96686534D01*
X117289761Y-96682183D01*
X117286534Y-96676536D01*
X117193669Y-96514057D01*
X117158589Y-96452679D01*
X117005709Y-96258753D01*
X116997826Y-96248753D01*
X116997823Y-96248750D01*
X116994934Y-96245085D01*
X116802393Y-96063960D01*
X116637123Y-95949308D01*
X116589037Y-95915949D01*
X116589034Y-95915947D01*
X116585195Y-95913284D01*
X116581005Y-95911218D01*
X116581002Y-95911216D01*
X116352299Y-95798433D01*
X116352296Y-95798432D01*
X116348111Y-95796368D01*
X116325444Y-95789112D01*
X116132035Y-95727201D01*
X116096350Y-95715778D01*
X115945495Y-95691210D01*
X115840054Y-95674038D01*
X115840053Y-95674038D01*
X115835442Y-95673287D01*
X115703281Y-95671557D01*
X115575797Y-95669888D01*
X115575794Y-95669888D01*
X115571120Y-95669827D01*
X115309189Y-95705474D01*
X115304703Y-95706782D01*
X115304701Y-95706782D01*
X115258100Y-95720365D01*
X115055405Y-95779445D01*
X115051152Y-95781405D01*
X115051151Y-95781406D01*
X115034436Y-95789112D01*
X114815342Y-95890116D01*
X114811437Y-95892676D01*
X114811432Y-95892679D01*
X114598187Y-96032488D01*
X114598182Y-96032492D01*
X114594274Y-96035054D01*
X114590782Y-96038171D01*
X114404229Y-96204676D01*
X114397057Y-96211077D01*
X114228025Y-96414316D01*
X114090890Y-96640308D01*
X114089081Y-96644622D01*
X114089080Y-96644624D01*
X113990960Y-96878615D01*
X113988665Y-96884087D01*
X113923595Y-97140298D01*
X113923127Y-97144949D01*
X113923126Y-97144953D01*
X113918486Y-97191034D01*
X113897111Y-97403313D01*
X113630000Y-97403313D01*
X113630000Y-95260000D01*
X127936500Y-95260000D01*
X127936500Y-96860000D01*
X127941727Y-96933079D01*
X127982904Y-97073316D01*
X127987775Y-97080895D01*
X128057051Y-97188691D01*
X128057053Y-97188694D01*
X128061923Y-97196271D01*
X128068733Y-97202172D01*
X128165569Y-97286082D01*
X128165572Y-97286084D01*
X128172381Y-97291984D01*
X128180579Y-97295728D01*
X128281465Y-97341801D01*
X128305330Y-97352700D01*
X128314245Y-97353982D01*
X128314246Y-97353982D01*
X128445552Y-97372861D01*
X128445559Y-97372862D01*
X128450000Y-97373500D01*
X130050000Y-97373500D01*
X130123079Y-97368273D01*
X130245181Y-97332421D01*
X130254670Y-97329635D01*
X130254672Y-97329634D01*
X130263316Y-97327096D01*
X130327135Y-97286082D01*
X130378691Y-97252949D01*
X130378694Y-97252947D01*
X130386271Y-97248077D01*
X130392172Y-97241267D01*
X130474666Y-97146064D01*
X131028490Y-97146064D01*
X131037784Y-97158078D01*
X131088992Y-97193934D01*
X131098487Y-97199417D01*
X131295943Y-97291491D01*
X131306239Y-97295239D01*
X131516690Y-97351630D01*
X131527477Y-97353532D01*
X131744525Y-97372521D01*
X131755475Y-97372521D01*
X131972523Y-97353532D01*
X131983310Y-97351630D01*
X132193761Y-97295239D01*
X132204057Y-97291491D01*
X132401513Y-97199417D01*
X132411008Y-97193934D01*
X132463050Y-97157494D01*
X132471426Y-97147015D01*
X132464359Y-97133570D01*
X131762811Y-96432021D01*
X131748868Y-96424408D01*
X131747034Y-96424539D01*
X131740420Y-96428790D01*
X131034917Y-97134294D01*
X131028490Y-97146064D01*
X130474666Y-97146064D01*
X130476082Y-97144431D01*
X130476084Y-97144428D01*
X130481984Y-97137619D01*
X130485728Y-97129421D01*
X130538958Y-97012864D01*
X130538958Y-97012863D01*
X130542700Y-97004670D01*
X130553644Y-96928555D01*
X130558666Y-96893622D01*
X130588159Y-96829041D01*
X130628602Y-96803050D01*
X130627139Y-96800267D01*
X130676430Y-96774359D01*
X131377979Y-96072811D01*
X131384355Y-96061132D01*
X132114408Y-96061132D01*
X132114539Y-96062966D01*
X132118790Y-96069580D01*
X132824294Y-96775083D01*
X132836064Y-96781510D01*
X132848078Y-96772216D01*
X132883934Y-96721008D01*
X132889417Y-96711513D01*
X132981491Y-96514057D01*
X132985239Y-96503761D01*
X133041630Y-96293310D01*
X133043532Y-96282523D01*
X133062521Y-96065475D01*
X133062521Y-96054525D01*
X133043532Y-95837477D01*
X133041630Y-95826690D01*
X132985239Y-95616239D01*
X132981491Y-95605943D01*
X132889417Y-95408487D01*
X132883934Y-95398992D01*
X132847494Y-95346950D01*
X132837015Y-95338574D01*
X132823570Y-95345641D01*
X132122021Y-96047189D01*
X132114408Y-96061132D01*
X131384355Y-96061132D01*
X131385592Y-96058868D01*
X131385461Y-96057034D01*
X131381210Y-96050420D01*
X130675706Y-95344917D01*
X130632379Y-95321259D01*
X130625818Y-95319832D01*
X130575610Y-95269636D01*
X130560512Y-95218227D01*
X130558755Y-95193659D01*
X130558755Y-95193658D01*
X130558273Y-95186921D01*
X130517096Y-95046684D01*
X130471393Y-94975569D01*
X130469733Y-94972985D01*
X131028574Y-94972985D01*
X131035641Y-94986430D01*
X131737189Y-95687979D01*
X131751132Y-95695592D01*
X131752966Y-95695461D01*
X131759580Y-95691210D01*
X132465083Y-94985706D01*
X132471510Y-94973936D01*
X132462216Y-94961922D01*
X132411008Y-94926066D01*
X132401513Y-94920583D01*
X132204057Y-94828509D01*
X132193761Y-94824761D01*
X131983310Y-94768370D01*
X131972523Y-94766468D01*
X131755475Y-94747479D01*
X131744525Y-94747479D01*
X131527477Y-94766468D01*
X131516690Y-94768370D01*
X131306239Y-94824761D01*
X131295943Y-94828509D01*
X131098487Y-94920583D01*
X131088992Y-94926066D01*
X131036950Y-94962506D01*
X131028574Y-94972985D01*
X130469733Y-94972985D01*
X130442949Y-94931309D01*
X130442947Y-94931306D01*
X130438077Y-94923729D01*
X130431267Y-94917828D01*
X130334431Y-94833918D01*
X130334428Y-94833916D01*
X130327619Y-94828016D01*
X130194670Y-94767300D01*
X130185755Y-94766018D01*
X130185754Y-94766018D01*
X130054448Y-94747139D01*
X130054441Y-94747138D01*
X130050000Y-94746500D01*
X128450000Y-94746500D01*
X128376921Y-94751727D01*
X128323884Y-94767300D01*
X128245330Y-94790365D01*
X128245328Y-94790366D01*
X128236684Y-94792904D01*
X128229105Y-94797775D01*
X128121309Y-94867051D01*
X128121306Y-94867053D01*
X128113729Y-94871923D01*
X128107828Y-94878733D01*
X128023918Y-94975569D01*
X128023916Y-94975572D01*
X128018016Y-94982381D01*
X127957300Y-95115330D01*
X127956018Y-95124245D01*
X127956018Y-95124246D01*
X127937139Y-95255552D01*
X127937138Y-95255559D01*
X127936500Y-95260000D01*
X113630000Y-95260000D01*
X113630000Y-93326000D01*
X113650002Y-93257879D01*
X113703658Y-93211386D01*
X113756000Y-93200000D01*
X166224000Y-93200000D01*
X166292121Y-93220002D01*
G37*
%TD.AperFunction*%
%TD*%
M02*
